if (_typeface_js && _typeface_js.loadFace) _typeface_js.loadFace({"glyphs":{"0":{"ha":742,"x_min":0,"x_max":0,"o":"m 664 371 b 429 604 664 508 554 604 b 50 221 243 604 50 419 b 285 -12 50 83 160 -12 b 664 371 469 -12 664 172 z m 575 439 b 472 114 575 365 507 167 b 283 10 431 50 390 10 b 139 153 179 10 139 76 b 242 478 139 226 207 425 b 431 582 285 542 325 582 b 575 439 536 582 575 517 z "},"1":{"ha":485,"x_min":0,"x_max":0,"o":"m 474 592 l 167 592 b 161 569 164 592 158 569 l 250 569 b 258 564 257 569 258 568 l 89 28 b 78 22 88 24 85 22 l -11 22 b -19 0 -14 22 -22 0 l 288 0 b 294 22 290 0 299 22 l 206 22 b 199 28 200 22 197 24 l 368 564 b 378 569 368 568 372 569 l 468 569 b 474 592 471 569 476 592 z "},"2":{"ha":599,"x_min":0,"x_max":0,"o":"m 531 192 b 508 192 532 194 508 194 b 372 89 486 124 451 89 l 142 89 b 138 94 135 89 131 90 b 503 443 381 217 503 331 b 318 604 503 546 424 604 b 140 456 203 604 140 525 b 232 360 140 392 176 360 b 283 408 260 360 283 379 b 246 456 283 440 267 456 b 193 442 221 456 222 442 b 169 471 171 442 169 444 b 285 572 169 510 203 572 b 393 460 354 572 393 536 b -76 19 393 318 250 135 b -78 0 -85 17 -82 0 l 467 0 b 471 4 469 0 471 1 z "},"3":{"ha":551,"x_min":0,"x_max":0,"o":"m 467 454 b 286 604 467 511 442 604 b 107 467 158 604 107 528 b 196 361 107 407 143 361 b 249 410 224 361 249 381 b 210 457 249 442 231 457 b 157 443 185 457 186 443 b 136 481 139 443 136 458 b 253 574 136 513 167 574 b 357 472 319 574 357 533 b 67 117 357 329 267 210 b 79 101 64 115 74 99 b 200 142 143 135 174 142 b 281 46 238 142 281 119 b -19 -376 281 -199 186 -376 b -149 -293 -110 -376 -149 -332 b -104 -244 -149 -261 -128 -244 b -36 -264 -69 -244 -67 -264 b 10 -207 -11 -264 10 -244 b -53 -147 10 -172 -19 -147 b -181 -278 -131 -147 -181 -204 b -19 -399 -181 -350 -125 -399 b 399 -1 149 -399 399 -235 b 236 172 399 111 340 172 b 190 164 224 172 210 169 b 467 454 311 207 467 346 z "},"4":{"ha":621,"x_min":0,"x_max":0,"o":"m 701 743 b 688 754 703 744 690 757 b 479 672 640 707 528 651 l 78 179 b -64 18 29 118 -24 57 b -58 0 -68 15 -62 0 l 288 0 l 167 -386 l 275 -386 l 397 0 l 542 0 b 549 22 544 0 551 22 l 404 22 l 496 315 b 474 315 496 318 474 319 b 346 190 451 271 407 196 l 294 22 l -33 22 z "},"5":{"ha":574,"x_min":0,"x_max":0,"o":"m 557 581 b 514 625 557 610 550 625 b 300 550 474 625 415 550 b 193 593 247 550 208 571 b 178 585 192 594 178 588 b 175 572 176 582 178 581 l 69 108 b 51 65 65 97 54 74 b 64 51 47 56 58 51 b 83 60 68 51 82 53 b 97 108 89 75 85 86 b 236 197 135 171 181 197 b 329 92 290 197 329 165 b 3 -376 329 -185 215 -376 b -126 -293 -87 -376 -126 -332 b -82 -244 -126 -261 -103 -244 b -14 -264 -47 -244 -43 -264 b 32 -207 13 -264 32 -244 b -31 -147 32 -172 3 -147 b -157 -278 -107 -147 -157 -204 b 4 -399 -157 -350 -103 -399 b 447 31 186 -399 447 -197 b 261 224 447 146 376 224 b 101 144 185 224 138 196 l 193 549 b 353 475 214 510 278 475 b 557 581 476 475 557 514 z "},"6":{"ha":683,"x_min":0,"x_max":0,"o":"m 744 865 b 608 990 744 942 704 990 b 58 222 371 990 58 546 b 268 -11 58 56 163 -11 b 614 342 439 -11 614 158 b 400 557 614 468 515 557 b 224 457 333 557 265 521 b 610 968 299 724 431 968 b 713 893 683 968 713 935 b 675 851 713 864 693 851 b 607 871 639 851 636 871 b 560 814 581 871 560 853 b 622 756 560 779 589 756 b 744 865 685 756 744 804 z m 521 413 b 438 106 521 344 469 156 b 264 11 393 38 358 11 b 151 121 188 11 151 49 b 217 414 151 240 189 363 b 396 535 250 478 319 535 b 521 413 485 535 521 488 z "},"7":{"ha":606,"x_min":0,"x_max":0,"o":"m 631 593 l 618 593 l 156 593 b 150 589 153 593 151 592 l 79 364 b 103 364 78 361 101 361 b 253 511 129 447 164 511 l 550 511 l -108 -385 l 28 -385 l 481 372 b 629 578 522 442 581 524 b 631 593 632 582 633 593 z "},"8":{"ha":676,"x_min":0,"x_max":0,"o":"m 718 810 b 526 990 718 896 643 990 b 257 721 365 990 257 883 b 354 511 257 635 299 575 b 43 175 174 436 43 321 b 256 -12 43 71 132 -12 b 574 278 426 -12 574 100 b 461 540 574 388 518 465 b 718 810 624 613 718 700 z m 639 846 b 446 556 639 757 608 628 b 338 793 388 632 338 693 b 519 968 338 910 404 968 b 639 846 604 968 639 915 z m 481 244 b 268 10 481 81 386 10 b 138 168 188 10 138 58 b 367 493 138 368 240 442 b 481 244 426 418 481 346 z "},"9":{"ha":693,"x_min":0,"x_max":0,"o":"m 613 371 b 403 604 613 538 508 604 b 50 228 232 604 50 411 b 263 13 50 101 147 13 b 442 108 329 13 401 47 b 63 -376 389 -81 219 -376 b -50 -306 -14 -376 -50 -343 b -8 -256 -50 -272 -31 -256 b 56 -275 26 -256 26 -275 b 101 -218 82 -275 101 -257 b 39 -160 101 -183 72 -160 b -82 -282 -33 -160 -82 -218 b 63 -399 -82 -356 -36 -399 b 613 371 300 -399 613 47 z m 528 467 b 451 157 528 400 479 208 b 268 35 411 81 333 35 b 129 149 169 35 129 97 b 238 492 129 217 206 442 b 408 582 276 550 318 582 b 528 467 499 582 528 528 z "}," ":{"ha":278,"x_min":0,"x_max":0,"o":""},"!":{"ha":383,"x_min":0,"x_max":0,"o":"m 446 956 b 394 1008 446 985 429 1008 b 296 917 358 1008 318 986 b 138 228 264 818 214 474 b 161 228 136 222 158 222 b 446 956 238 474 446 882 z m 161 72 b 108 128 161 106 139 128 b 24 38 64 128 24 85 b 76 -18 24 4 46 -18 b 161 72 121 -18 161 25 z "},"\"":{"ha":460,"x_min":0,"x_max":0,"o":"m 531 957 b 485 1008 531 990 514 1008 b 436 963 461 1008 443 985 b 390 690 419 910 404 783 b 388 675 390 690 386 676 b 407 675 386 669 404 669 b 413 689 408 675 413 689 b 531 957 456 772 531 900 z m 322 957 b 276 1008 322 990 306 1008 b 228 963 253 1008 235 985 b 182 690 211 910 196 783 b 179 675 182 690 178 676 b 199 675 178 669 196 669 b 204 689 200 675 204 689 b 322 957 247 772 322 900 z "},"#":{"ha":644,"x_min":0,"x_max":0,"o":"m 624 413 b 624 435 625 413 625 435 l 474 435 l 531 649 b 511 651 532 651 513 654 l 453 435 l 289 435 l 346 649 b 326 651 347 651 328 654 l 268 435 l 124 435 b 124 413 121 435 121 413 l 263 413 l 207 197 l 60 197 b 60 175 57 197 57 175 l 200 175 l 136 -57 b 158 -60 136 -60 157 -62 l 219 175 l 385 175 l 322 -57 b 342 -60 321 -60 342 -62 l 406 175 l 561 175 b 561 197 564 175 564 197 l 411 197 l 468 413 z m 449 413 l 392 197 l 226 197 l 283 413 z "},"$":{"ha":733,"x_min":0,"x_max":0,"o":"m 776 817 b 642 997 776 897 726 971 l 679 1119 b 656 1125 681 1122 657 1128 l 618 1004 b 564 1010 601 1008 583 1010 b 538 1010 554 1010 546 1010 l 572 1119 b 549 1125 574 1122 550 1128 l 511 1006 b 260 707 357 983 260 858 b 350 494 260 615 300 550 l 197 10 b 58 153 114 31 58 86 b 97 208 58 189 72 208 b 174 188 136 208 140 188 b 225 250 203 188 225 207 b 156 315 225 289 193 315 b 28 161 82 315 28 260 b 190 -11 28 89 90 15 b 150 -140 190 -12 150 -140 b 174 -146 149 -143 172 -149 b 215 -17 174 -146 215 -18 b 282 -24 236 -22 258 -24 b 294 -24 286 -24 290 -24 l 257 -140 b 281 -146 256 -143 279 -149 l 319 -22 b 619 301 526 -6 619 146 b 500 550 619 407 563 482 l 635 976 b 751 831 714 951 751 883 b 717 767 751 794 744 767 b 649 786 682 767 678 786 b 603 729 622 786 603 768 b 663 674 603 694 628 674 b 776 817 725 674 776 721 z m 611 982 b 481 571 611 983 481 571 b 421 636 460 593 440 614 b 531 986 421 636 531 988 b 565 988 542 988 553 988 b 611 982 582 988 597 986 z m 504 982 l 401 657 b 340 810 367 704 340 751 b 504 982 340 889 392 964 z m 531 221 b 326 1 531 107 478 15 l 449 392 b 531 221 494 342 531 290 z m 431 410 b 300 -1 411 347 307 14 b 285 -1 296 -1 290 -1 b 221 4 263 -1 240 0 b 368 474 221 4 369 474 b 431 410 389 451 411 431 z "},"%":{"ha":972,"x_min":0,"x_max":0,"o":"m 533 815 b 379 990 533 925 467 990 b 78 672 206 990 78 815 b 233 497 78 563 143 497 b 533 815 404 497 533 672 z m 808 1007 b 790 1019 810 1010 792 1022 l 204 -21 b 221 -33 203 -24 219 -36 z m 935 306 b 779 481 935 415 869 481 b 479 163 608 481 479 306 b 633 -12 479 53 544 -12 b 935 306 807 -12 935 163 z m 447 874 b 325 544 447 790 413 606 b 238 519 299 525 271 519 b 163 614 182 519 163 547 b 285 943 163 697 197 882 b 374 968 313 963 342 968 b 447 874 429 968 447 940 z m 850 364 b 728 35 850 281 815 96 b 639 10 700 15 671 10 b 564 104 583 10 564 38 b 688 433 564 188 600 372 b 776 458 715 453 743 458 b 850 364 832 458 850 431 z "},"&":{"ha":1036,"x_min":0,"x_max":0,"o":"m 1015 460 b 908 553 1015 513 979 553 b 638 228 786 553 718 344 b 536 679 578 351 535 504 b 764 915 679 749 764 833 b 661 1008 764 972 729 1008 b 400 624 525 1008 400 857 b 50 222 171 542 50 386 b 290 -24 50 74 157 -24 b 556 78 410 -24 492 22 b 769 -24 608 13 661 -24 b 1003 125 882 -24 982 50 b 982 132 1004 128 983 135 b 857 38 961 79 917 38 b 647 207 788 38 703 96 b 851 486 724 315 781 486 b 949 397 917 486 874 397 b 1015 460 993 397 1015 428 z m 742 921 b 536 704 742 838 668 769 b 685 981 539 838 586 981 b 742 921 722 981 742 960 z m 543 93 b 382 21 501 56 429 21 b 175 292 257 21 175 132 b 399 600 175 450 238 543 b 543 93 400 367 461 215 z "},"’":{"ha":251,"x_min":0,"x_max":0,"o":"m 357 939 b 296 1008 357 971 339 1008 b 222 929 249 1008 222 975 b 250 835 222 888 250 871 b 147 724 250 778 194 746 b 90 706 131 717 111 710 b 89 682 88 706 86 682 b 357 939 240 713 357 846 z "},"(":{"ha":407,"x_min":0,"x_max":0,"o":"m 649 1007 b 642 1025 651 1010 644 1026 b 50 76 326 849 50 481 b 211 -339 50 -129 114 -254 b 225 -326 214 -340 226 -328 b 118 -65 147 -261 118 -199 b 400 778 118 67 271 547 b 649 1007 449 867 535 943 z "},")":{"ha":407,"x_min":0,"x_max":0,"o":"m 335 611 b 174 1026 335 817 271 942 b 160 1014 171 1028 158 1015 b 267 753 238 949 267 886 b -15 -90 267 621 114 140 b -264 -319 -64 -179 -150 -256 b -257 -337 -267 -322 -260 -339 b 335 611 58 -161 335 207 z "},"*":{"ha":403,"x_min":0,"x_max":0,"o":"m 479 876 b 456 914 482 892 474 911 b 440 913 451 915 446 915 b 336 850 408 901 410 876 l 326 847 l 329 856 b 372 971 342 933 367 938 b 347 1004 375 986 364 1000 b 313 981 331 1007 315 997 b 315 858 307 947 329 936 l 314 850 l 307 856 b 229 950 246 906 256 929 b 215 957 225 954 221 956 b 181 929 199 960 183 944 b 190 904 179 919 182 911 b 297 846 217 882 236 896 l 303 840 l 294 838 b 174 818 221 811 206 831 b 156 797 164 815 157 807 b 179 760 153 783 161 764 b 194 761 183 760 189 760 b 300 825 226 774 226 799 l 308 828 l 307 819 b 263 704 293 742 268 738 b 288 671 260 688 271 674 b 322 693 304 668 319 678 b 321 815 328 728 307 738 l 322 824 l 329 818 b 406 724 389 768 379 746 b 419 718 410 721 414 719 b 454 746 436 715 451 731 b 444 771 456 754 453 764 b 338 829 418 793 397 779 l 333 833 l 339 838 b 461 856 413 864 429 844 b 479 876 471 860 478 868 z "},"+":{"ha":565,"x_min":0,"x_max":0,"o":"m 494 281 b 494 310 497 281 497 310 l 306 310 l 306 521 b 278 521 306 524 278 524 l 278 310 l 81 310 b 81 281 78 310 78 281 l 278 281 l 278 76 b 306 76 278 74 306 74 l 306 281 z "},",":{"ha":272,"x_min":0,"x_max":0,"o":"m 165 60 b 104 129 165 92 147 129 b 31 50 57 129 31 96 b 58 -44 31 8 58 -8 b -44 -156 58 -101 3 -133 b -101 -174 -61 -162 -81 -169 b -103 -197 -104 -174 -106 -197 b 165 60 49 -167 165 -33 z "},"-":{"ha":447,"x_min":0,"x_max":0,"o":"m 410 371 b 410 376 413 374 413 376 l 63 376 b 38 292 60 344 51 313 b 38 286 36 289 35 286 l 385 286 b 410 371 388 318 396 350 z "},".":{"ha":272,"x_min":0,"x_max":0,"o":"m 167 72 b 114 129 167 106 144 129 b 29 38 69 129 29 85 b 82 -18 29 4 51 -18 b 167 72 126 -18 167 25 z "},"/":{"ha":456,"x_min":0,"x_max":0,"o":"m 533 1047 b 513 1056 535 1050 514 1058 l 71 -24 b 90 -32 69 -26 90 -35 z "},":":{"ha":363,"x_min":0,"x_max":0,"o":"m 290 478 b 238 535 290 511 268 535 b 153 443 193 535 153 490 b 206 388 153 410 175 388 b 290 478 250 388 290 431 z m 167 72 b 114 129 167 106 144 129 b 29 38 69 129 29 85 b 82 -18 29 4 51 -18 b 167 72 126 -18 167 25 z "},";":{"ha":363,"x_min":0,"x_max":0,"o":"m 290 478 b 238 535 290 511 268 535 b 153 443 193 535 153 490 b 206 388 153 410 175 388 b 290 478 250 388 290 431 z m 165 60 b 104 129 165 92 147 129 b 31 50 57 129 31 96 b 58 -44 31 8 58 -8 b -44 -156 58 -101 3 -133 b -101 -174 -61 -162 -81 -169 b -103 -197 -104 -174 -106 -197 b 165 60 49 -167 165 -33 z "},"<":{"ha":454,"x_min":0,"x_max":0,"o":"m 393 122 l 108 296 l 393 471 b 382 492 396 472 385 493 l 71 304 b 71 289 71 303 71 290 l 382 101 b 393 122 385 99 396 121 z "},"=":{"ha":511,"x_min":0,"x_max":0,"o":"m 438 367 b 438 389 439 367 439 389 l 76 389 b 76 367 75 389 75 367 z m 438 201 b 438 224 439 201 439 224 l 76 224 b 76 201 75 224 75 201 z "},">":{"ha":465,"x_min":0,"x_max":0,"o":"m 397 288 b 397 303 397 289 397 301 l 85 490 b 75 469 82 493 72 471 l 360 296 l 75 121 b 85 100 72 119 82 99 z "},"?":{"ha":633,"x_min":0,"x_max":0,"o":"m 667 772 b 446 1007 667 899 571 1007 b 215 828 310 1007 215 904 b 282 757 215 790 243 757 b 347 810 326 757 347 781 b 329 882 347 843 329 842 b 450 985 329 954 358 985 b 578 858 522 985 578 946 b 482 535 578 790 511 585 b 322 456 450 476 411 456 b 243 504 285 456 250 474 b 219 499 242 508 221 503 b 219 492 219 497 221 496 l 139 228 b 163 228 138 222 160 222 l 239 471 b 326 432 249 449 288 432 b 667 772 507 432 667 582 z m 161 72 b 108 128 161 106 139 128 b 24 38 64 128 24 85 b 76 -18 24 4 46 -18 b 161 72 121 -18 161 25 z "},"@":{"ha":1089,"x_min":0,"x_max":0,"o":"m 1032 560 b 592 1008 1032 846 833 1008 b 110 492 326 1008 110 778 b 592 -24 110 207 326 -24 b 894 92 706 -24 811 19 b 882 108 899 94 886 110 b 592 -3 803 39 703 -3 b 132 492 338 -3 132 217 b 592 986 132 769 338 986 b 1010 558 822 986 1010 835 b 754 274 1010 379 886 274 b 739 507 679 274 688 331 l 804 728 l 721 728 l 706 678 b 614 739 697 718 651 739 b 324 421 456 739 324 565 b 461 244 324 333 360 244 b 626 385 511 244 590 285 b 732 244 607 313 625 244 b 1032 560 861 244 1032 342 z m 690 632 l 639 451 b 469 271 621 392 554 271 b 397 354 425 271 397 300 b 521 679 397 447 447 614 b 611 718 551 706 576 718 b 690 632 668 718 701 676 z "},"A":{"ha":882,"x_min":0,"x_max":0,"o":"m 818 22 l 688 22 b 678 26 681 22 678 24 l 678 1004 b 653 1004 678 1008 657 1010 l -29 79 b -97 22 -64 33 -78 22 l -189 22 b -194 0 -192 22 -197 0 l 86 0 b 93 22 89 0 96 22 l -22 22 b 0 81 -39 22 -37 29 l 188 332 l 535 332 l 535 26 b 525 22 535 24 532 22 l 421 22 b 414 0 418 22 411 0 l 811 0 b 818 22 815 0 821 22 z m 535 356 l 204 356 l 535 800 z "},"B":{"ha":882,"x_min":0,"x_max":0,"o":"m 860 771 b 576 983 860 904 760 983 l 233 983 b 225 961 231 983 222 961 l 350 961 b 357 957 357 961 358 960 l 65 26 b 54 22 64 24 61 22 l -71 22 b -78 0 -74 22 -81 0 l 363 0 b 793 304 610 0 793 146 b 542 526 793 440 699 521 b 860 771 726 532 860 633 z m 743 842 b 667 617 743 764 699 665 b 492 538 629 558 575 538 l 378 538 l 510 957 b 519 961 511 960 514 961 l 585 961 b 743 842 694 961 743 932 z m 656 393 b 569 107 656 293 614 172 b 368 22 528 43 468 22 l 224 22 b 217 26 218 22 215 24 l 371 514 l 489 514 b 656 393 600 514 656 469 z "},"C":{"ha":858,"x_min":0,"x_max":0,"o":"m 940 1004 b 917 1004 940 1007 918 1007 b 839 964 906 982 889 964 b 640 1008 774 964 721 1008 b 68 346 344 1008 68 679 b 399 -24 68 115 200 -24 b 792 215 547 -24 685 63 b 775 231 793 217 776 233 b 399 -1 667 75 546 -1 b 181 203 265 -1 181 58 b 382 844 181 368 322 747 b 640 985 443 942 522 985 b 831 729 769 985 874 865 b 853 729 829 725 853 725 z "},"D":{"ha":1025,"x_min":0,"x_max":0,"o":"m 999 606 b 638 983 999 825 836 983 l 233 983 b 225 961 231 983 222 961 l 350 961 b 357 957 357 961 358 960 l 65 26 b 54 22 64 24 61 22 l -71 22 b -78 0 -74 22 -81 0 l 372 0 b 999 606 669 0 999 288 z m 876 749 b 710 188 876 592 771 281 b 368 22 632 68 507 22 l 224 22 b 217 26 218 22 215 24 l 510 957 b 519 961 511 960 514 961 l 632 961 b 876 749 818 961 876 854 z "},"E":{"ha":885,"x_min":0,"x_max":0,"o":"m 929 979 b 926 983 929 982 929 983 l 232 983 b 226 961 229 983 222 961 l 350 961 b 358 957 357 961 358 960 l 65 26 b 54 22 64 24 61 22 l -69 22 b -78 0 -74 22 -81 0 l 690 0 b 696 4 693 0 694 1 l 782 278 b 758 278 783 281 760 281 b 361 22 714 136 610 22 l 225 22 b 217 26 218 22 217 24 l 369 508 l 426 508 b 533 342 540 508 564 438 b 557 342 533 339 556 339 l 657 665 b 635 665 658 668 636 668 b 433 529 604 569 547 529 l 376 529 l 510 957 b 521 961 511 960 514 961 l 674 961 b 835 732 833 961 878 868 b 858 732 835 729 858 729 z "},"F":{"ha":808,"x_min":0,"x_max":0,"o":"m 929 982 b 926 986 929 983 929 986 l 233 986 b 226 964 231 986 224 964 l 351 964 b 358 958 357 964 360 963 l 65 29 b 54 24 64 25 61 24 l -69 24 b -76 1 -74 24 -79 1 l 364 1 b 371 24 367 1 375 24 l 225 24 b 217 29 218 24 217 25 l 369 510 l 447 510 b 554 344 561 510 585 440 b 578 344 554 342 576 342 l 678 667 b 656 667 679 669 657 669 b 454 532 625 571 568 532 l 376 532 l 510 958 b 521 964 511 963 515 964 l 675 964 b 838 735 835 964 881 869 b 860 735 838 732 858 732 z "},"G":{"ha":919,"x_min":0,"x_max":0,"o":"m 965 394 l 546 394 b 539 372 543 394 536 372 l 664 372 b 671 368 669 372 672 371 l 599 138 b 399 -1 571 50 507 -1 b 181 200 264 -1 181 54 b 382 842 181 365 322 744 b 649 983 443 939 531 983 b 829 726 778 983 874 864 b 851 726 829 724 851 724 l 940 1001 b 917 1001 940 1004 918 1004 b 839 961 906 979 889 961 b 649 1006 785 961 731 1006 b 68 343 351 1006 68 676 b 399 -24 68 113 200 -24 b 635 50 524 -24 578 50 b 679 -4 675 50 688 31 b 706 -6 678 -8 704 -8 l 824 368 b 833 372 824 371 828 372 l 958 372 b 965 394 961 372 968 394 z "},"H":{"ha":1078,"x_min":0,"x_max":0,"o":"m 1197 985 l 792 985 b 785 963 788 985 782 963 l 896 963 b 903 957 901 963 904 960 l 765 524 l 374 524 l 510 957 b 521 963 511 960 515 963 l 632 963 b 639 985 635 963 642 985 l 233 985 b 226 963 229 985 224 963 l 351 963 b 358 957 357 963 360 960 l 65 28 b 56 22 64 24 61 22 l -69 22 b -78 0 -72 22 -81 0 l 328 0 b 336 22 331 0 339 22 l 225 22 b 218 28 219 22 217 24 l 367 501 l 758 501 l 610 28 b 599 22 608 24 606 22 l 488 22 b 481 0 485 22 478 0 l 886 0 b 893 22 889 0 897 22 l 769 22 b 761 28 763 22 761 24 l 1056 957 b 1065 963 1056 960 1060 963 l 1190 963 b 1197 985 1193 963 1200 985 z "},"I":{"ha":535,"x_min":0,"x_max":0,"o":"m 653 985 l 233 985 b 226 963 231 985 224 963 l 350 963 b 358 957 357 963 358 960 l 65 28 b 54 22 64 24 61 22 l -69 22 b -76 0 -72 22 -79 0 l 343 0 b 350 22 346 0 353 22 l 225 22 b 218 28 218 22 217 24 l 510 957 b 521 963 511 960 514 963 l 646 963 b 653 985 649 963 656 985 z "},"J":{"ha":763,"x_min":0,"x_max":0,"o":"m 894 985 l 475 985 b 468 963 472 985 465 963 l 593 963 b 600 957 599 963 601 960 l 335 122 b 171 -3 307 35 242 -3 b 68 61 103 -3 68 21 b 106 113 68 90 81 107 b 167 199 147 121 167 167 b 81 283 167 240 129 283 b -29 163 15 283 -29 214 b 164 -24 -29 69 33 -24 b 544 303 351 -24 475 81 l 751 957 b 763 963 753 960 757 963 l 888 963 b 894 985 890 963 897 985 z "},"K":{"ha":915,"x_min":0,"x_max":0,"o":"m 1067 985 l 794 985 b 789 963 792 985 786 963 l 888 963 b 844 904 903 963 889 942 l 365 496 l 510 957 b 521 963 511 960 514 963 l 636 963 b 643 985 640 963 646 985 l 233 985 b 225 963 231 985 222 963 l 350 963 b 358 957 357 963 358 960 l 65 28 b 54 22 64 24 61 22 l -71 22 b -78 0 -74 22 -81 0 l 333 0 b 340 22 336 0 343 22 l 225 22 b 217 28 218 22 217 24 l 363 488 l 564 28 b 558 22 565 25 564 22 l 438 22 b 429 0 433 22 426 0 l 885 0 b 892 22 888 0 894 22 l 744 22 b 733 28 740 22 733 25 l 488 574 l 878 904 b 957 963 932 950 946 963 l 1060 963 b 1067 985 1063 963 1069 985 z "},"L":{"ha":800,"x_min":0,"x_max":0,"o":"m 735 279 b 713 279 736 282 714 282 b 315 22 668 136 564 22 l 224 22 b 217 28 218 22 215 24 l 510 957 b 521 963 511 960 514 963 l 646 963 b 651 985 649 963 654 985 l 232 985 b 226 963 229 985 224 963 l 350 963 b 358 957 357 963 358 960 l 65 28 b 54 22 64 24 61 22 l -71 22 b -78 0 -74 22 -81 0 l 644 0 b 649 4 647 0 649 1 z "},"M":{"ha":1225,"x_min":0,"x_max":0,"o":"m 1344 985 l 1058 985 b 1032 958 1053 985 1042 975 l 556 222 l 535 960 b 519 985 533 975 525 985 l 249 985 b 240 963 244 985 238 963 l 357 963 b 364 957 363 963 365 960 l 72 28 b 61 22 71 24 67 22 l -56 22 b -62 0 -58 22 -65 0 l 211 0 b 218 22 214 0 221 22 l 101 22 b 94 28 96 22 93 24 l 383 943 l 404 -18 b 429 -18 404 -22 426 -22 l 1044 936 l 757 28 b 747 22 756 24 753 22 l 622 22 b 615 0 619 22 613 0 l 1035 0 b 1042 22 1038 0 1044 22 l 917 22 b 910 28 910 22 908 24 l 1203 957 b 1214 963 1204 960 1207 963 l 1338 963 b 1344 985 1342 963 1349 985 z "},"N":{"ha":1025,"x_min":0,"x_max":0,"o":"m 1143 985 l 869 985 b 863 963 867 985 860 963 l 979 963 b 986 957 985 963 988 960 l 753 219 l 526 960 b 503 985 519 979 513 985 l 242 985 b 235 963 239 985 232 963 l 350 963 b 358 957 357 963 358 960 l 65 28 b 54 22 64 24 61 22 l -61 22 b -68 0 -65 22 -71 0 l 204 0 b 211 22 208 0 214 22 l 96 22 b 89 28 89 22 88 24 l 372 928 l 676 -18 b 703 -18 679 -24 701 -22 l 1008 957 b 1019 963 1010 960 1013 963 l 1135 963 b 1143 985 1139 963 1146 985 z "},"O":{"ha":997,"x_min":0,"x_max":0,"o":"m 971 638 b 640 1008 971 868 839 1008 b 68 346 343 1008 68 679 b 399 -24 68 115 199 -24 b 971 638 694 -24 971 304 z m 858 782 b 653 139 858 617 714 236 b 399 -1 586 32 500 -1 b 181 203 258 -1 181 65 b 385 846 181 368 325 749 b 640 985 453 953 538 985 b 858 782 779 985 858 919 z "},"P":{"ha":890,"x_min":0,"x_max":0,"o":"m 922 742 b 596 985 922 908 801 985 l 232 985 b 225 963 229 985 222 963 l 350 963 b 358 957 357 963 358 960 l 65 28 b 54 22 64 24 60 22 l -71 22 b -78 0 -74 22 -81 0 l 342 0 b 349 22 344 0 351 22 l 224 22 b 217 28 218 22 215 24 l 340 421 b 479 393 371 410 418 393 b 922 742 733 393 922 551 z m 789 828 b 696 510 789 736 731 564 b 486 415 653 444 596 415 b 347 444 426 415 383 428 l 510 957 b 521 963 511 960 514 963 l 626 963 b 789 828 749 963 789 918 z "},"Q":{"ha":997,"x_min":0,"x_max":0,"o":"m 971 638 b 640 1008 971 868 839 1008 b 68 346 343 1008 68 679 b 399 -25 68 117 199 -36 b 429 -22 406 -25 422 -24 b 188 -92 369 -39 246 -67 b 135 -112 157 -96 135 -107 b 149 -133 135 -124 143 -133 b 213 -112 160 -133 179 -112 b 817 -458 403 -112 358 -458 b 817 -436 819 -458 819 -436 b 250 -92 511 -436 617 -83 b 589 26 336 -65 453 -44 b 971 638 783 122 971 369 z m 858 782 b 653 138 858 617 715 236 b 399 -1 586 31 500 -1 b 181 203 253 -1 179 64 b 385 846 181 368 325 749 b 640 985 453 953 538 985 b 858 782 779 985 858 919 z "},"R":{"ha":901,"x_min":0,"x_max":0,"o":"m 882 8 b 875 29 885 8 879 31 b 788 8 850 11 826 8 b 726 85 749 8 726 38 b 779 344 726 144 779 267 b 557 511 779 438 724 508 b 881 772 771 521 881 642 b 599 985 881 904 781 985 l 233 985 b 226 963 231 985 224 963 l 351 963 b 358 957 357 963 360 960 l 65 28 b 56 22 64 24 61 22 l -69 22 b -76 0 -72 22 -81 0 l 342 0 b 350 22 346 0 353 22 l 225 22 b 218 28 219 22 217 24 l 367 501 l 482 501 b 647 426 588 501 647 482 b 579 104 647 368 579 182 b 739 -24 579 11 642 -24 b 882 8 801 -24 840 -14 z m 760 860 b 678 607 760 783 710 656 b 499 524 642 553 589 524 l 374 524 l 510 957 b 521 963 511 960 515 963 l 606 963 b 760 860 715 963 760 936 z "},"S":{"ha":746,"x_min":0,"x_max":0,"o":"m 763 1004 b 740 1004 764 1008 742 1008 b 682 972 729 985 714 972 b 513 1008 640 972 593 1008 b 214 700 340 1008 214 868 b 561 197 214 460 561 408 b 324 -3 561 82 483 -3 b 119 303 136 -3 72 153 b 96 303 121 306 97 306 l 8 6 b 31 6 7 4 29 3 b 94 36 43 29 57 36 b 318 -24 144 36 199 -24 b 660 304 528 -24 660 121 b 310 808 660 538 310 614 b 515 986 310 914 381 986 b 664 758 619 986 708 899 b 688 758 664 756 686 756 z "},"T":{"ha":854,"x_min":0,"x_max":0,"o":"m 996 981 b 993 985 997 982 996 985 l 201 985 b 197 981 199 985 197 982 l 110 704 b 132 704 110 701 132 701 b 475 963 185 872 274 963 l 503 963 b 510 957 508 963 511 960 l 217 28 b 206 22 215 24 211 22 l 81 22 b 74 0 78 22 71 0 l 493 0 b 500 22 496 0 503 22 l 375 22 b 368 28 369 22 367 24 l 663 957 b 672 963 663 960 667 963 l 699 963 b 883 694 904 963 933 854 b 906 694 882 692 906 692 z "},"U":{"ha":1032,"x_min":0,"x_max":0,"o":"m 1158 985 l 885 985 b 878 963 882 985 875 963 l 993 963 b 1001 957 1000 963 1001 960 l 792 297 b 460 15 733 111 635 15 b 271 163 343 15 271 72 b 308 356 271 215 286 283 l 496 957 b 507 963 497 960 501 963 l 632 963 b 639 985 635 963 642 985 l 219 985 b 213 963 217 985 210 963 l 338 963 b 344 957 343 963 346 960 l 158 365 b 135 225 143 317 135 269 b 413 -24 135 83 217 -24 b 811 281 625 -24 751 90 l 1025 957 b 1036 963 1026 960 1029 963 l 1151 963 b 1158 985 1154 963 1161 985 z "},"V":{"ha":901,"x_min":0,"x_max":0,"o":"m 1163 985 l 864 985 b 860 963 861 985 856 963 l 979 963 b 954 904 992 963 994 957 l 392 171 l 411 953 b 419 963 411 960 414 963 l 531 963 b 536 985 533 963 539 985 l 147 985 b 142 963 144 985 139 963 l 258 963 b 267 957 264 963 267 960 l 246 -21 b 271 -21 246 -25 267 -26 l 982 904 b 1046 963 1019 953 1035 963 l 1158 963 b 1163 985 1161 963 1165 985 z "},"W":{"ha":1294,"x_min":0,"x_max":0,"o":"m 1531 985 l 1258 985 b 1253 963 1254 985 1250 963 l 1364 963 b 1335 904 1374 963 1372 957 l 833 179 l 814 647 l 985 886 b 1058 963 1035 951 1043 963 l 1157 963 b 1163 985 1161 963 1165 985 l 139 985 b 133 963 136 985 129 963 l 257 963 b 267 957 264 963 267 960 l 307 -21 b 332 -21 307 -25 328 -26 l 678 457 l 696 -21 b 722 -21 697 -25 718 -26 l 1360 904 b 1408 963 1396 956 1401 963 l 1525 963 b 1531 985 1528 963 1533 985 z m 1001 963 b 976 907 1011 963 1011 954 l 813 679 l 801 957 b 810 963 801 960 804 963 z m 675 492 l 443 174 l 411 957 b 419 963 410 960 413 963 l 649 963 b 656 954 654 963 657 960 z "},"X":{"ha":901,"x_min":0,"x_max":0,"o":"m 1040 985 l 760 985 b 753 963 757 985 750 963 l 863 963 b 836 913 876 963 878 960 l 551 590 l 460 957 b 467 963 460 958 461 963 l 593 963 b 600 985 596 963 603 985 l 183 985 b 176 963 181 985 174 963 l 296 963 b 307 957 301 963 306 960 l 433 451 l 114 81 b 47 22 64 28 51 22 l -64 22 b -71 0 -67 22 -74 0 l 210 0 b 217 22 213 0 219 22 l 104 22 b 143 81 90 22 93 26 l 440 424 l 539 28 b 532 22 539 25 538 22 l 399 22 b 392 0 396 22 389 0 l 833 0 b 840 22 838 0 844 22 l 703 22 b 693 28 699 22 693 25 l 558 564 l 858 904 b 925 963 908 957 921 963 l 1032 963 b 1040 985 1036 963 1043 985 z "},"Y":{"ha":878,"x_min":0,"x_max":0,"o":"m 1074 985 l 793 985 b 788 963 790 985 785 963 l 906 963 b 871 904 915 963 914 958 l 539 481 l 453 957 b 460 963 451 958 454 963 l 610 963 b 617 985 613 963 619 985 l 168 985 b 160 963 164 985 157 963 l 289 963 b 299 957 293 963 297 960 l 393 456 l 258 28 b 247 22 257 24 253 22 l 122 22 b 115 0 119 22 113 0 l 535 0 b 542 22 538 0 544 22 l 417 22 b 410 28 411 22 408 24 l 543 453 l 900 904 b 960 963 942 957 951 963 l 1067 963 b 1074 985 1069 963 1076 985 z "},"Z":{"ha":885,"x_min":0,"x_max":0,"o":"m 949 985 l 317 985 b 311 981 314 985 313 982 l 219 692 b 243 692 219 689 243 689 b 590 963 294 853 403 963 l 767 963 b 769 957 772 963 772 958 l -33 19 b -35 0 -39 13 -39 0 l 661 0 b 667 4 664 0 665 1 l 753 279 b 729 279 753 282 731 282 b 332 22 685 136 581 22 l 149 22 b 144 28 143 22 143 25 l 947 965 b 949 985 953 972 953 985 z "},"[":{"ha":406,"x_min":0,"x_max":0,"o":"m 636 1024 l 357 1024 b 350 1018 353 1024 351 1022 l -76 -335 b -72 -340 -78 -337 -76 -340 l 208 -340 b 214 -318 211 -340 217 -318 l 56 -318 b 49 -312 49 -318 47 -315 l 460 996 b 471 1001 461 1000 464 1001 l 631 1001 b 636 1024 635 1001 639 1024 z "},"\\":{"ha":497,"x_min":0,"x_max":0,"o":"m 417 -24 l -25 1056 b -46 1047 -26 1058 -47 1050 l 397 -32 b 417 -24 397 -35 418 -26 z "},"]":{"ha":406,"x_min":0,"x_max":0,"o":"m 467 1018 b 463 1024 468 1021 467 1024 l 182 1024 b 176 1001 179 1024 174 1001 l 335 1001 b 342 996 342 1001 343 999 l -69 -312 b -81 -318 -71 -317 -74 -318 l -240 -318 b -246 -340 -244 -318 -249 -340 l 33 -340 b 40 -335 38 -340 39 -339 z "},"^":{"ha":453,"x_min":0,"x_max":0,"o":"m 472 726 b 401 992 443 799 411 911 b 379 997 401 994 382 999 b 122 728 315 931 229 818 b 142 719 119 725 139 717 b 336 897 210 776 288 847 b 401 715 353 826 379 756 z "},"_":{"ha":757,"x_min":0,"x_max":0,"o":"m 688 0 b 688 22 690 0 690 22 l 42 22 b 42 0 39 22 39 0 z "},"‘":{"ha":251,"x_min":0,"x_max":0,"o":"m 406 1018 b 138 761 254 988 138 854 b 199 692 138 729 156 692 b 272 771 246 692 272 725 b 244 865 272 813 244 829 b 347 976 244 922 300 954 b 404 994 364 983 383 990 b 406 1018 407 994 408 1018 z "},"a":{"ha":697,"x_min":0,"x_max":0,"o":"m 661 129 l 639 138 b 518 39 606 78 563 39 b 496 100 490 39 483 61 l 656 607 l 549 589 l 524 532 b 419 604 514 579 468 604 b 35 208 206 604 35 388 b 218 -12 35 99 82 -12 b 397 128 294 -12 356 39 b 486 -12 374 49 411 -12 b 661 129 536 -12 610 29 z m 510 490 l 432 249 b 233 17 372 96 317 17 b 135 139 158 17 135 67 b 303 540 135 256 201 463 b 419 582 336 564 363 582 b 510 490 475 582 510 547 z "},"b":{"ha":663,"x_min":0,"x_max":0,"o":"m 606 400 b 406 603 606 528 519 603 b 238 476 347 603 271 556 l 407 1021 b 404 1025 407 1022 407 1025 l 213 1019 b 206 997 208 1019 203 997 l 282 999 b 289 993 289 999 290 997 l 50 231 b 201 -12 4 85 67 -12 b 606 400 394 -12 606 185 z m 508 444 b 392 108 508 351 439 172 b 201 8 340 42 296 8 b 128 135 139 8 104 53 l 207 378 b 400 574 256 501 322 574 b 508 444 489 574 508 519 z "},"c":{"ha":574,"x_min":0,"x_max":0,"o":"m 544 472 b 381 603 544 533 478 603 b 35 219 194 603 35 419 b 254 -12 35 82 129 -12 b 497 126 347 -12 433 40 l 481 139 b 253 8 422 65 354 8 b 128 144 151 8 128 76 b 224 482 128 217 193 426 b 382 581 257 542 293 581 b 444 542 426 581 444 568 b 424 467 444 513 424 508 b 481 410 424 438 440 410 b 544 472 515 410 544 432 z "},"d":{"ha":683,"x_min":0,"x_max":0,"o":"m 786 1019 b 783 1024 786 1022 786 1024 l 592 1018 b 585 996 589 1018 581 996 l 661 999 b 668 993 667 999 669 996 l 524 538 b 425 603 517 581 472 603 b 35 206 211 603 35 385 b 218 -12 35 96 83 -12 b 399 139 293 -12 358 51 b 486 -12 375 47 404 -12 b 661 129 536 -12 610 28 l 640 138 b 518 39 603 71 560 39 b 494 99 490 39 482 60 z m 508 488 l 440 269 b 233 17 389 131 313 17 b 135 136 158 17 135 64 b 303 539 135 253 201 463 b 419 581 335 564 361 581 b 508 488 482 581 515 546 z "},"e":{"ha":579,"x_min":0,"x_max":0,"o":"m 543 489 b 389 603 543 539 506 603 b 35 219 203 603 35 419 b 253 -12 35 82 128 -12 b 481 106 347 -12 415 28 l 467 121 b 253 8 411 54 354 8 b 128 144 151 8 128 76 b 156 297 128 190 138 231 l 242 297 b 543 489 424 297 543 379 z m 454 515 b 233 319 454 428 403 319 l 163 319 b 385 581 210 489 258 581 b 454 515 432 581 454 557 z "},"f":{"ha":397,"x_min":0,"x_max":0,"o":"m 682 910 b 543 1032 682 968 647 1032 b 229 682 408 1032 296 889 b 204 599 219 656 213 633 l 60 599 b 53 578 57 599 50 578 l 197 578 b 13 -133 138 365 72 57 b -154 -417 -58 -354 -85 -417 b -203 -375 -183 -417 -203 -403 b -179 -297 -203 -354 -179 -328 b -233 -251 -179 -272 -194 -251 b -299 -322 -269 -251 -299 -278 b -160 -439 -299 -389 -240 -439 b 128 -79 -18 -439 58 -289 b 307 578 178 74 247 357 l 469 578 b 476 599 472 578 479 599 l 314 599 b 344 706 325 640 333 671 b 536 1010 425 961 483 1010 b 588 964 574 1010 588 994 b 563 885 588 943 563 914 b 618 838 563 858 579 838 b 682 910 653 838 682 864 z "},"g":{"ha":660,"x_min":0,"x_max":0,"o":"m 656 606 l 550 588 l 526 540 b 425 603 515 579 479 603 b 35 206 211 603 35 386 b 218 -14 35 96 83 -14 b 399 133 286 -14 351 36 l 374 53 b 83 -417 242 -365 189 -417 b -14 -364 14 -417 -14 -394 b 15 -318 -14 -340 -11 -324 b 57 -254 39 -312 57 -283 b -8 -189 57 -222 28 -189 b -93 -282 -58 -189 -93 -233 b 78 -439 -93 -360 -37 -439 b 465 1 267 -439 378 -278 z m 511 494 l 436 254 b 233 15 372 94 311 15 b 135 139 158 15 135 67 b 303 539 135 256 201 461 b 419 581 335 564 361 581 b 511 494 475 581 517 551 z "},"h":{"ha":693,"x_min":0,"x_max":0,"o":"m 669 129 l 649 138 b 528 38 608 64 571 38 b 486 92 499 38 486 60 b 610 493 486 181 610 376 b 514 603 610 574 554 603 b 219 374 432 603 300 519 l 424 1021 b 421 1025 424 1024 424 1025 l 229 1019 b 222 997 226 1019 219 997 l 299 999 b 306 994 304 999 307 997 l -7 0 l 101 0 l 199 308 b 438 529 290 463 382 529 b 499 471 471 529 499 504 b 379 86 499 344 379 197 b 490 -12 379 29 415 -12 b 669 129 540 -12 619 28 z "},"i":{"ha":367,"x_min":0,"x_max":0,"o":"m 369 885 b 299 956 369 924 338 956 b 228 885 260 956 228 924 b 299 814 228 846 260 814 b 369 885 338 814 369 846 z m 338 129 l 317 138 b 196 38 276 64 239 38 b 154 92 165 38 154 60 b 290 504 154 181 290 365 b 194 603 290 561 268 603 b 47 479 150 603 90 574 l 69 471 b 157 556 99 532 128 556 b 190 515 183 556 190 544 b 53 86 190 390 53 197 b 163 -12 53 29 89 -12 b 338 129 213 -12 288 28 z "},"j":{"ha":349,"x_min":0,"x_max":0,"o":"m 363 886 b 292 957 363 925 331 957 b 221 886 253 957 221 925 b 292 815 221 847 253 815 b 363 886 331 815 363 847 z m 264 375 b 201 604 325 540 292 604 b 56 481 157 604 99 575 l 76 472 b 164 557 106 532 135 557 b 192 490 190 557 204 531 l -4 -133 b -190 -417 -74 -354 -121 -417 b -231 -376 -219 -417 -231 -404 b -207 -303 -231 -356 -207 -333 b -262 -256 -207 -276 -222 -256 b -326 -328 -297 -256 -326 -283 b -196 -439 -326 -393 -276 -439 b 111 -110 -37 -439 46 -308 z "},"k":{"ha":649,"x_min":0,"x_max":0,"o":"m 622 528 b 536 603 622 574 594 603 b 215 360 400 603 386 371 l 424 1021 b 421 1025 424 1024 424 1025 l 229 1019 b 221 997 226 1019 218 997 l 299 999 b 306 994 304 999 307 997 l -7 0 l 103 0 l 208 336 b 454 -12 321 318 236 -12 b 618 136 561 -12 618 53 b 553 208 618 167 593 208 b 497 158 518 208 497 182 b 567 75 497 107 567 117 b 503 21 567 44 543 21 b 310 369 335 21 458 293 b 496 557 397 431 435 557 b 522 535 517 557 522 546 b 507 492 522 518 507 515 b 556 451 507 471 521 451 b 622 528 596 451 622 490 z "},"l":{"ha":363,"x_min":0,"x_max":0,"o":"m 438 1021 b 435 1025 439 1024 438 1025 l 243 1019 b 236 997 240 1019 233 997 l 313 999 b 321 994 319 999 321 997 l 57 157 b 138 -12 25 56 50 -12 b 313 129 188 -12 261 28 l 290 138 b 169 38 254 72 214 38 b 143 82 144 38 135 57 z "},"m":{"ha":1069,"x_min":0,"x_max":0,"o":"m 1046 129 l 1025 138 b 904 38 985 64 947 38 b 863 92 875 38 863 60 b 985 493 863 181 985 376 b 890 603 985 574 931 603 b 615 374 803 603 699 522 b 532 603 675 532 590 603 b 257 374 444 603 340 522 b 206 603 315 532 290 603 b 49 479 161 603 92 574 l 69 471 b 157 556 99 532 129 556 b 186 490 185 556 199 529 l 31 0 l 140 0 l 236 308 b 463 529 328 463 406 529 b 511 389 517 529 540 482 l 389 0 l 499 0 l 594 308 b 813 529 686 463 768 529 b 875 471 847 529 875 504 b 756 86 875 344 756 197 b 867 -12 756 29 792 -12 b 1046 129 915 -12 996 28 z "},"n":{"ha":731,"x_min":0,"x_max":0,"o":"m 708 129 l 688 138 b 565 38 646 64 608 38 b 524 92 536 38 524 60 b 649 493 524 181 649 376 b 553 603 649 574 593 603 b 258 374 471 603 339 519 b 206 603 317 532 292 603 b 50 479 163 603 93 574 l 71 471 b 157 556 100 532 129 556 b 186 490 185 556 199 529 l 32 0 l 140 0 l 238 308 b 475 529 329 463 419 529 b 538 471 508 529 538 504 b 418 86 538 344 418 197 b 529 -12 418 29 454 -12 b 708 129 579 -12 658 28 z "},"o":{"ha":669,"x_min":0,"x_max":0,"o":"m 607 369 b 389 603 607 507 514 603 b 35 219 203 603 35 419 b 253 -12 35 82 128 -12 b 607 369 439 -12 607 171 z m 514 446 b 418 108 514 372 450 164 b 251 8 385 49 340 8 b 128 144 151 8 128 76 b 222 482 128 217 192 426 b 389 581 257 542 301 581 b 514 446 490 581 514 513 z "},"p":{"ha":708,"x_min":0,"x_max":0,"o":"m 646 386 b 463 604 646 496 597 604 b 274 435 393 604 318 536 b 204 604 306 549 276 604 b 49 481 142 604 85 558 l 69 472 b 156 557 99 533 128 557 b 185 492 183 557 197 531 l -106 -426 l 4 -426 l 154 50 b 264 -12 167 11 210 -12 b 646 386 467 -12 646 207 z m 546 456 b 378 51 546 339 479 129 b 269 10 346 28 319 10 b 168 88 208 10 174 35 l 236 307 b 447 575 285 429 357 575 b 546 456 522 575 546 528 z "},"q":{"ha":661,"x_min":0,"x_max":0,"o":"m 656 607 l 550 588 l 524 532 b 425 603 515 578 469 603 b 35 207 211 603 35 388 b 218 -14 35 97 82 -14 b 401 143 289 -14 361 44 l 221 -428 l 331 -428 z m 510 490 l 429 239 b 233 15 378 106 311 15 b 135 139 158 15 135 67 b 303 539 135 256 201 461 b 419 581 336 563 363 581 b 510 490 476 581 510 546 z "},"r":{"ha":551,"x_min":0,"x_max":0,"o":"m 556 501 b 458 603 556 557 519 603 b 267 401 390 603 329 542 b 206 603 317 536 285 603 b 49 479 161 603 92 574 l 69 471 b 157 556 99 532 129 556 b 186 490 183 556 199 529 l 31 0 l 140 0 l 236 308 b 411 544 326 494 375 544 b 440 513 433 544 440 533 b 425 463 440 496 425 493 b 486 413 425 436 446 413 b 556 501 525 413 556 460 z "},"s":{"ha":499,"x_min":0,"x_max":0,"o":"m 460 492 b 317 603 460 554 403 603 b 121 415 200 603 121 503 b 303 126 121 278 303 256 b 179 10 303 56 258 10 b 83 64 104 10 83 35 b 125 142 83 101 125 81 b 69 194 125 165 107 194 b 6 119 32 194 6 158 b 174 -12 6 54 63 -12 b 389 179 333 -12 389 97 b 201 475 389 329 201 367 b 311 582 201 546 247 582 b 367 543 354 582 367 563 b 347 485 367 521 347 514 b 400 432 347 458 364 432 b 460 492 432 432 460 453 z "},"t":{"ha":368,"x_min":0,"x_max":0,"o":"m 407 599 l 304 599 l 369 807 l 257 799 l 194 599 l 93 599 b 86 576 90 599 83 576 l 188 576 l 56 157 b 136 -12 21 46 50 -12 b 311 129 186 -12 261 28 l 290 138 b 168 38 249 64 211 38 b 142 82 143 38 133 57 l 296 576 l 400 576 b 407 599 404 576 411 599 z "},"u":{"ha":717,"x_min":0,"x_max":0,"o":"m 688 128 l 665 138 b 544 38 624 64 588 38 b 517 82 518 38 508 57 l 679 599 l 567 590 l 471 282 b 229 51 375 117 294 51 b 164 115 196 51 164 81 b 290 504 164 242 290 393 b 196 603 290 556 267 603 b 49 479 151 603 92 574 l 71 471 b 157 556 99 532 129 556 b 190 515 181 556 190 546 b 60 117 190 426 60 233 b 175 -12 60 35 108 -12 b 447 208 257 -12 365 63 b 503 -14 389 53 419 -14 b 688 128 551 -14 636 28 z "},"v":{"ha":663,"x_min":0,"x_max":0,"o":"m 621 524 b 560 603 621 565 604 603 b 513 539 529 603 513 574 b 538 390 513 483 538 468 b 254 26 538 243 371 26 b 182 121 204 26 182 49 b 286 488 182 217 286 356 b 193 603 286 567 256 603 b 36 479 149 603 79 574 l 58 471 b 144 556 86 532 117 556 b 186 511 171 556 186 540 b 82 133 186 385 82 235 b 232 -12 82 25 144 -12 b 621 524 392 -12 621 314 z "},"w":{"ha":968,"x_min":0,"x_max":0,"o":"m 928 524 b 865 603 928 565 910 603 b 818 539 835 603 818 574 b 843 390 818 483 843 468 b 560 26 843 251 667 26 b 503 146 506 26 472 63 l 642 599 l 529 590 l 419 240 b 213 51 357 118 278 51 b 150 111 178 51 150 76 b 272 504 150 238 272 393 b 193 603 272 560 256 603 b 36 479 132 603 75 564 l 58 471 b 144 556 86 532 117 556 b 176 515 167 556 176 546 b 47 97 176 426 47 214 b 138 -12 47 15 97 -12 b 397 165 217 -12 335 56 b 529 -12 372 57 419 -12 b 928 524 688 -12 928 314 z "},"x":{"ha":657,"x_min":0,"x_max":0,"o":"m 649 519 b 569 603 649 561 629 603 b 349 365 490 603 417 510 b 219 603 315 529 297 603 b 74 479 174 603 124 576 l 93 464 b 163 533 119 514 138 533 b 260 294 203 533 224 503 b 272 233 265 269 269 250 b 100 35 203 85 142 35 b 65 69 76 35 65 53 b 81 117 65 89 81 96 b 35 157 81 135 64 157 b -37 74 -4 157 -37 122 b 58 -12 -37 21 -3 -12 b 282 207 140 -12 211 54 b 443 -12 319 51 371 -12 b 611 135 500 -12 572 32 l 590 144 b 494 56 560 82 533 56 b 360 306 444 56 392 122 b 356 328 358 314 357 321 b 517 547 415 460 481 547 b 547 519 539 547 547 538 b 532 472 547 501 532 492 b 578 432 532 450 547 432 b 649 519 610 432 649 463 z "},"y":{"ha":622,"x_min":0,"x_max":0,"o":"m 668 565 b 626 604 668 590 657 604 b 340 168 539 604 454 446 l 304 364 b 176 604 267 568 231 604 b 19 471 117 604 71 564 l 38 457 b 107 519 64 503 82 519 b 214 297 139 519 176 506 l 267 -10 b -47 -415 161 -256 96 -415 b -89 -378 -76 -415 -89 -406 b -64 -299 -89 -357 -64 -331 b -121 -250 -64 -271 -81 -250 b -186 -325 -157 -250 -186 -278 b -53 -437 -186 -392 -133 -437 b 311 36 108 -437 182 -279 b 618 513 465 411 497 475 b 668 565 644 521 668 535 z "},"z":{"ha":604,"x_min":0,"x_max":0,"o":"m 585 597 l 568 610 l 553 594 b 433 532 517 558 485 532 b 172 613 378 532 296 554 l 86 388 l 107 381 l 154 501 b 360 458 229 471 306 458 b 433 474 386 458 414 463 l -26 0 l -10 -17 b 114 50 26 28 65 50 b 365 -14 194 50 282 -14 b 556 156 474 -14 556 54 b 453 272 556 221 518 272 b 392 211 415 272 392 249 b 432 169 392 186 407 169 b 503 188 471 169 483 188 b 529 146 519 188 529 179 b 421 40 529 90 496 40 b 164 139 361 40 269 139 b 129 135 150 139 142 138 z "},"{":{"ha":406,"x_min":0,"x_max":0,"o":"m 568 1025 l 558 1025 b 229 686 388 1025 229 894 b 228 432 229 567 228 533 b 188 365 228 393 206 369 b 171 363 182 363 175 363 b 136 365 156 363 149 365 b 124 351 131 365 124 356 b 131 336 124 347 125 336 b 165 339 143 336 150 339 b 179 338 169 339 174 339 b 193 315 189 333 193 328 b -22 -160 193 236 -22 44 b 160 -339 -22 -260 25 -339 l 181 -339 b 186 -317 183 -339 189 -317 l 165 -317 b 74 -224 86 -317 74 -283 b 238 276 74 -61 238 165 b 192 351 238 310 224 340 b 300 458 251 361 286 417 b 371 864 333 564 339 764 b 553 1003 403 965 460 1003 l 563 1003 b 568 1025 565 1003 571 1025 z "},"|":{"ha":221,"x_min":0,"x_max":0,"o":"m 122 -32 l 122 1049 b 101 1049 122 1053 101 1053 l 101 -32 b 122 -32 101 -35 122 -35 z "},"}":{"ha":406,"x_min":0,"x_max":0,"o":"m 414 844 b 232 1024 414 944 367 1024 l 211 1024 b 206 1001 208 1024 203 1001 l 226 1001 b 318 908 306 1001 318 968 b 154 408 318 746 154 519 b 200 333 154 375 168 344 b 92 226 140 324 106 268 b 21 -179 58 121 53 -79 b -161 -318 -11 -281 -68 -318 l -171 -318 b -176 -340 -174 -318 -179 -340 l -167 -340 b 163 -1 4 -340 163 -210 b 164 253 163 118 164 151 b 204 319 164 292 186 315 b 221 322 210 322 217 322 b 256 319 236 322 243 319 b 268 333 261 319 268 329 b 261 349 268 338 267 349 b 226 346 249 349 242 346 b 213 347 222 346 218 346 b 199 369 203 351 199 357 b 414 844 199 449 414 640 z "},"~":{"ha":606,"x_min":0,"x_max":0,"o":"m 592 574 b 568 574 592 578 568 578 b 479 478 568 529 542 478 b 235 564 417 478 328 564 b 68 407 153 564 68 496 b 92 407 68 404 92 404 b 181 504 92 453 118 504 b 425 417 243 504 332 417 b 592 574 508 417 592 486 z "},"¡":{"ha":383,"x_min":0,"x_max":0,"o":"m 360 479 b 307 535 360 513 338 535 b 222 444 263 535 222 492 b 275 389 222 411 244 389 b 360 479 319 389 360 432 z m 246 289 b 222 289 247 294 225 294 b -62 -439 146 43 -62 -365 b -11 -492 -62 -468 -46 -492 b 88 -400 25 -492 65 -469 b 246 289 119 -301 169 43 z "},"¢":{"ha":574,"x_min":0,"x_max":0,"o":"m 544 472 b 392 601 544 532 483 596 l 418 700 b 393 700 418 704 394 704 l 367 601 b 35 219 188 594 35 415 b 206 -7 35 101 106 14 l 178 -108 b 203 -108 178 -112 201 -112 l 229 -11 b 254 -12 236 -12 244 -12 b 497 126 347 -12 433 40 l 481 139 b 253 8 422 65 354 8 b 235 10 246 8 239 10 l 386 581 b 444 542 428 579 444 568 b 424 467 444 513 424 508 b 481 410 424 438 440 410 b 544 472 515 410 544 432 z m 361 579 l 211 14 b 128 144 144 31 128 88 b 224 482 128 217 193 426 b 361 579 254 538 288 575 z "},"£":{"ha":835,"x_min":0,"x_max":0,"o":"m 876 885 b 726 1008 876 951 828 1008 b 390 639 592 1008 429 846 b 379 501 382 588 379 546 l 222 501 b 215 479 219 501 213 479 l 378 479 b 276 139 378 307 342 210 b 143 154 240 146 197 154 b -11 50 42 154 -11 100 b 75 -24 -11 -3 33 -24 b 238 51 135 -24 185 4 b 515 -24 317 17 410 -24 b 740 176 629 -24 738 76 b 717 181 740 179 718 183 b 619 69 714 117 674 69 b 296 131 472 69 396 108 b 488 479 388 208 471 350 l 643 479 b 649 501 646 479 651 501 l 492 501 b 721 986 543 897 628 986 b 768 938 754 986 768 971 b 740 849 768 914 740 882 b 803 797 740 819 758 797 b 876 885 839 797 876 824 z m 213 61 b 76 -1 169 17 115 -1 b 11 46 42 -1 11 13 b 76 101 11 85 35 101 b 213 61 121 101 154 86 z "},"⁄":{"ha":685,"x_min":0,"x_max":0,"o":"m 597 1006 b 578 1015 599 1007 579 1018 l -50 -25 b -33 -36 -51 -28 -35 -39 z "},"¥":{"ha":843,"x_min":0,"x_max":0,"o":"m 1039 985 l 750 985 b 743 963 747 985 740 963 l 874 963 b 839 904 883 963 881 958 l 507 483 l 410 957 b 417 963 408 960 411 963 l 549 963 b 556 985 551 963 558 985 l 165 985 b 158 963 163 985 156 963 l 278 963 b 288 957 283 963 288 960 l 376 531 l 144 531 b 139 508 142 531 136 508 l 382 508 l 392 457 l 360 356 l 89 356 b 83 333 86 356 81 333 l 353 333 l 256 28 b 246 22 256 24 251 22 l 121 22 b 114 0 118 22 110 0 l 500 0 b 507 22 503 0 510 22 l 383 22 b 375 28 376 22 375 24 l 472 333 l 742 333 b 747 356 744 333 750 356 l 478 356 l 508 453 l 554 508 l 797 508 b 801 531 800 508 806 531 l 571 531 l 865 904 b 925 963 907 957 917 963 l 1032 963 b 1039 985 1036 963 1042 985 z "},"ƒ":{"ha":478,"x_min":0,"x_max":0,"o":"m 721 935 b 601 1035 721 993 689 1035 b 204 493 411 1035 250 796 l 203 474 b 193 469 203 471 199 469 l 68 469 b 63 447 65 469 60 447 l 189 447 b 197 442 194 447 197 444 b -107 -414 122 -51 71 -414 b -143 -378 -137 -414 -143 -406 b -122 -312 -143 -346 -122 -343 b -178 -267 -122 -287 -137 -267 b -244 -339 -217 -267 -244 -299 b -122 -439 -244 -401 -204 -439 b 322 422 139 -439 272 86 l 325 442 b 335 447 326 444 329 447 l 458 447 b 464 469 461 447 467 469 l 339 469 b 331 474 332 469 329 471 b 585 1010 394 964 496 1010 b 621 974 610 1010 621 999 b 599 908 621 938 599 939 b 654 863 599 881 615 863 b 721 935 690 863 721 890 z "},"§":{"ha":717,"x_min":0,"x_max":0,"o":"m 793 850 b 578 1033 793 944 708 1033 b 276 740 393 1033 276 907 b 307 610 276 688 286 651 b 79 321 174 578 79 467 b 329 -225 79 93 329 -40 b 103 -419 329 -344 263 -419 b -126 -256 -33 -419 -126 -333 b -82 -192 -126 -219 -111 -192 b -6 -214 -43 -192 -39 -214 b 46 -150 24 -214 46 -193 b -24 -85 46 -112 14 -85 b -154 -247 -97 -85 -154 -149 b 100 -442 -154 -343 -51 -442 b 414 -136 335 -442 414 -282 b 389 -17 414 -89 406 -56 b 611 283 538 17 611 126 b 358 844 611 517 358 650 b 576 1011 358 947 439 1011 b 765 868 699 1011 765 940 b 732 800 765 832 760 800 b 663 819 696 800 693 819 b 617 761 638 819 617 800 b 676 706 617 728 643 706 b 793 850 739 706 793 756 z m 536 194 b 379 6 536 100 507 35 b 151 425 308 153 151 272 b 317 588 151 504 210 563 b 536 194 389 453 536 340 z "},"'":{"ha":251,"x_min":0,"x_max":0,"o":"m 322 957 b 276 1008 322 990 306 1008 b 228 963 253 1008 235 985 b 182 690 211 910 196 783 b 179 675 182 690 178 676 b 199 675 178 669 196 669 b 204 689 200 675 204 689 b 322 957 247 772 322 900 z "},"“":{"ha":460,"x_min":0,"x_max":0,"o":"m 614 1018 b 346 761 463 988 346 854 b 407 692 346 729 364 692 b 481 771 454 692 481 725 b 453 865 481 813 453 829 b 556 976 453 922 508 954 b 613 994 572 983 592 990 b 614 1018 615 994 617 1018 z m 406 1018 b 138 761 254 988 138 854 b 199 692 138 729 156 692 b 272 771 246 692 272 725 b 244 865 272 813 244 829 b 347 976 244 922 300 954 b 404 994 364 983 383 990 b 406 1018 407 994 408 1018 z "},"«":{"ha":606,"x_min":0,"x_max":0,"o":"m 593 517 b 565 522 594 522 568 528 b 304 307 532 414 350 326 b 303 301 301 306 301 303 b 424 71 336 282 458 181 b 450 65 422 65 449 60 b 410 292 478 153 451 240 b 593 517 488 336 565 429 z m 358 517 b 331 522 360 522 333 528 b 69 307 297 414 115 326 b 68 301 67 306 67 303 b 189 71 101 282 224 181 b 215 65 188 65 214 60 b 175 292 243 153 217 240 b 358 517 253 336 331 429 z "},"‹":{"ha":371,"x_min":0,"x_max":0,"o":"m 358 517 b 331 522 360 522 333 528 b 69 307 297 414 115 326 b 68 301 67 306 67 303 b 189 71 101 282 224 181 b 215 65 188 65 214 60 b 175 292 243 153 217 240 b 358 517 253 336 331 429 z "},"›":{"ha":371,"x_min":0,"x_max":0,"o":"m 301 288 b 181 518 268 307 146 408 b 154 522 182 524 156 529 b 194 297 126 436 153 347 b 11 72 117 251 39 160 b 39 67 10 65 36 61 b 300 282 72 175 254 263 b 301 288 303 283 303 286 z "},"ﬁ":{"ha":696,"x_min":0,"x_max":0,"o":"m 699 871 b 540 1032 699 964 646 1032 b 228 682 407 1032 294 889 b 201 599 218 656 211 633 l 58 599 b 51 578 56 599 49 578 l 196 578 b 11 -133 136 365 71 57 b -147 -417 -60 -354 -79 -417 b -186 -372 -176 -417 -186 -399 b -161 -294 -186 -351 -161 -325 b -217 -249 -161 -268 -176 -249 b -283 -328 -251 -249 -283 -283 b -153 -439 -283 -394 -233 -439 b 126 -79 -10 -439 57 -289 b 306 578 176 74 246 357 l 513 578 b 354 86 494 481 354 179 b 456 -12 354 29 381 -12 b 640 129 506 -12 589 28 l 618 138 b 497 39 578 65 528 39 b 454 92 467 39 454 60 b 642 618 454 157 590 461 b 628 624 643 622 631 626 b 511 599 610 606 596 599 l 311 599 b 343 706 322 640 332 671 b 535 1010 424 961 482 1010 b 617 940 590 1010 617 996 b 572 840 617 900 572 885 b 631 788 572 806 590 788 b 699 871 665 788 699 826 z "},"ﬂ":{"ha":692,"x_min":0,"x_max":0,"o":"m 767 1026 b 751 1032 768 1031 756 1036 b 649 997 739 1018 724 997 b 551 1032 619 1022 592 1032 b 226 682 417 1032 293 889 b 201 599 218 656 211 633 l 58 599 b 51 576 56 599 49 576 l 194 576 b 10 -133 136 365 69 57 b -149 -417 -60 -354 -79 -417 b -186 -372 -178 -417 -186 -400 b -161 -294 -186 -351 -161 -325 b -217 -249 -161 -269 -178 -249 b -283 -328 -251 -249 -283 -283 b -153 -439 -283 -394 -233 -439 b 125 -79 -11 -439 57 -289 b 304 576 175 74 244 356 l 517 576 l 383 157 b 464 -12 351 56 378 -12 b 639 129 514 -12 589 28 l 618 138 b 496 39 576 65 528 39 b 469 82 471 39 461 57 z m 639 975 l 522 599 l 311 599 b 342 706 322 640 331 671 b 546 1010 422 961 493 1010 b 639 975 589 1010 606 1003 z "},"–":{"ha":757,"x_min":0,"x_max":0,"o":"m 701 317 b 701 339 704 317 704 339 l 56 339 b 56 317 53 339 53 317 z "},"†":{"ha":797,"x_min":0,"x_max":0,"o":"m 779 528 b 633 663 779 588 738 663 b 456 565 560 663 503 639 b 544 790 474 613 544 708 b 539 850 544 804 539 822 b 614 982 539 915 614 903 b 561 1033 614 1013 593 1033 b 478 949 515 1033 478 993 b 497 879 478 899 497 904 b 435 771 497 851 451 817 b 400 576 410 703 413 625 b 269 671 389 642 331 671 b 64 521 121 671 64 569 b 113 475 64 492 83 475 b 178 547 165 475 178 511 b 263 649 178 622 208 649 b 375 475 364 649 410 585 b 289 382 354 408 306 388 b 285 360 283 379 278 358 b 104 -437 347 386 269 89 b 126 -443 103 -440 125 -446 b 446 344 292 83 399 369 b 454 365 453 340 460 363 b 432 475 442 371 411 408 b 626 640 463 572 522 640 b 686 589 665 640 686 625 b 658 494 686 547 658 542 b 710 454 658 467 681 454 b 779 528 749 454 779 481 z "},"‡":{"ha":796,"x_min":0,"x_max":0,"o":"m 803 597 b 657 721 803 646 765 721 b 496 635 581 721 528 681 b 546 790 510 679 546 724 b 542 850 546 806 542 822 b 617 982 542 915 617 903 b 564 1033 617 1013 594 1033 b 479 949 517 1033 479 993 b 500 879 479 899 500 904 b 438 772 500 851 456 817 b 417 642 418 726 417 690 b 292 729 413 690 367 729 b 89 588 143 729 89 636 b 136 540 89 558 108 540 b 201 614 190 540 201 578 b 285 707 201 689 229 707 b 393 554 374 707 424 658 b 318 463 371 478 335 468 b 317 442 314 461 311 440 b 340 299 374 460 365 376 b 225 168 317 222 272 140 b 217 147 219 171 213 149 b 238 53 229 140 258 128 b 54 -106 213 -35 138 -106 b -10 -61 10 -106 -10 -99 b 22 29 -10 -19 22 -18 b -31 69 22 57 -1 69 b -99 -4 -69 69 -99 42 b 47 -128 -99 -53 -61 -128 b 208 -42 124 -128 175 -87 b 157 -199 194 -86 157 -131 b 163 -257 157 -212 163 -231 b 88 -389 163 -322 88 -310 b 140 -440 88 -419 108 -440 b 224 -356 186 -440 224 -401 b 204 -286 224 -306 204 -311 b 267 -179 204 -258 247 -224 b 288 -49 286 -133 288 -97 b 413 -136 292 -99 338 -136 b 615 6 561 -136 615 -43 b 567 51 615 33 596 51 b 501 -21 514 51 501 15 b 419 -114 501 -96 474 -114 b 311 39 331 -114 281 -65 b 385 131 332 114 369 124 b 388 151 390 132 393 153 b 363 293 331 133 339 217 b 478 425 388 369 432 453 b 488 446 483 421 492 444 b 467 540 475 453 444 465 b 650 699 492 628 567 699 b 714 654 694 699 714 690 b 682 564 714 613 682 611 b 733 524 682 536 704 524 b 803 597 772 524 803 550 z "},"·":{"ha":251,"x_min":0,"x_max":0,"o":"m 218 508 b 165 565 218 542 196 565 b 81 474 121 565 81 521 b 133 418 81 440 103 418 b 218 508 178 418 218 461 z "},"¶":{"ha":897,"x_min":0,"x_max":0,"o":"m 1063 983 l 744 983 b 110 378 447 983 110 696 b 471 0 110 158 272 0 l 753 0 b 760 22 756 0 763 22 l 643 22 b 636 28 638 22 635 24 l 929 957 b 940 961 931 960 933 961 l 1056 961 b 1063 983 1058 961 1065 983 z m 906 956 l 613 26 b 601 22 611 24 608 22 l 483 22 b 476 26 478 22 475 24 l 769 956 b 781 961 771 960 775 961 l 899 961 b 906 956 904 961 907 960 z "},"•":{"ha":479,"x_min":0,"x_max":0,"o":"m 419 492 b 275 638 419 572 354 638 b 129 492 194 638 129 572 b 275 347 129 413 194 347 b 419 492 354 347 419 413 z "},"‚":{"ha":272,"x_min":0,"x_max":0,"o":"m 165 60 b 104 129 165 92 147 129 b 31 50 57 129 31 96 b 58 -44 31 8 58 -8 b -44 -156 58 -101 3 -133 b -101 -174 -61 -162 -81 -169 b -103 -197 -104 -174 -106 -197 b 165 60 49 -167 165 -33 z "},"„":{"ha":481,"x_min":0,"x_max":0,"o":"m 374 60 b 313 129 374 92 356 129 b 239 50 265 129 239 96 b 267 -44 239 8 267 -8 b 164 -156 267 -101 211 -133 b 107 -174 147 -162 128 -169 b 106 -197 104 -174 103 -197 b 374 60 257 -167 374 -33 z m 165 60 b 104 129 165 92 147 129 b 31 50 57 129 31 96 b 58 -44 31 8 58 -8 b -44 -156 58 -101 3 -133 b -101 -174 -61 -162 -81 -169 b -103 -197 -104 -174 -106 -197 b 165 60 49 -167 165 -33 z "},"”":{"ha":460,"x_min":0,"x_max":0,"o":"m 565 939 b 504 1008 565 971 547 1008 b 431 929 457 1008 431 975 b 458 835 431 888 458 871 b 356 724 458 778 403 746 b 299 706 339 717 319 710 b 297 682 296 706 294 682 b 565 939 449 713 565 846 z m 357 939 b 296 1008 357 971 339 1008 b 222 929 249 1008 222 975 b 250 835 222 888 250 871 b 147 724 250 778 194 746 b 90 706 131 717 111 710 b 89 682 88 706 86 682 b 357 939 240 713 357 846 z "},"»":{"ha":606,"x_min":0,"x_max":0,"o":"m 536 288 b 415 518 503 307 381 408 b 389 522 417 524 390 529 b 429 297 361 436 388 347 b 246 72 351 251 274 160 b 274 67 244 65 271 61 b 535 282 307 175 489 263 b 536 288 538 283 538 286 z m 301 288 b 181 518 268 307 146 408 b 154 522 182 524 156 529 b 194 297 126 436 153 347 b 11 72 117 251 39 160 b 39 67 10 65 36 61 b 300 282 72 175 254 263 b 301 288 303 283 303 286 z "},"…":{"ha":858,"x_min":0,"x_max":0,"o":"m 753 72 b 700 129 753 106 731 129 b 615 38 656 129 615 85 b 668 -18 615 4 638 -18 b 753 72 713 -18 753 25 z m 460 72 b 407 129 460 106 438 129 b 322 38 363 129 322 85 b 375 -18 322 4 344 -18 b 460 72 419 -18 460 25 z m 167 72 b 114 129 167 106 144 129 b 29 38 69 129 29 85 b 82 -18 29 4 51 -18 b 167 72 126 -18 167 25 z "},"‰":{"ha":1468,"x_min":0,"x_max":0,"o":"m 1431 306 b 1275 481 1431 415 1365 481 b 975 163 1103 481 975 306 b 1129 -12 975 53 1040 -12 b 1431 306 1303 -12 1431 163 z m 533 815 b 379 990 533 925 467 990 b 78 672 206 990 78 815 b 233 497 78 563 143 497 b 533 815 404 497 533 672 z m 808 1007 b 790 1019 810 1010 792 1022 l 204 -21 b 221 -33 203 -24 219 -36 z m 935 306 b 779 481 935 415 869 481 b 479 163 608 481 479 306 b 633 -12 479 53 544 -12 b 935 306 807 -12 935 163 z m 1347 364 b 1224 35 1347 281 1311 96 b 1135 10 1196 15 1167 10 b 1063 104 1079 10 1063 38 b 1183 433 1063 188 1097 372 b 1272 458 1211 453 1239 458 b 1347 364 1328 458 1347 431 z m 447 874 b 325 544 447 790 413 606 b 238 519 299 525 271 519 b 163 614 182 519 163 547 b 285 943 163 697 197 882 b 374 968 313 963 342 968 b 447 874 429 968 447 940 z m 850 364 b 728 35 850 281 815 96 b 639 10 700 15 671 10 b 564 104 583 10 564 38 b 688 433 564 188 600 372 b 776 458 715 453 743 458 b 850 364 832 458 850 431 z "},"¿":{"ha":633,"x_min":0,"x_max":0,"o":"m 610 479 b 557 535 610 513 588 535 b 472 444 513 535 472 492 b 525 389 472 411 494 389 b 610 479 569 389 610 432 z m 494 289 b 471 289 496 294 474 294 l 394 46 b 307 85 385 68 346 85 b -33 -256 126 85 -33 -65 b 188 -490 -33 -382 63 -490 b 418 -311 324 -490 418 -387 b 351 -240 418 -274 390 -240 b 286 -293 307 -240 286 -264 b 304 -365 286 -326 304 -325 b 183 -468 304 -437 275 -468 b 56 -342 111 -468 56 -429 b 151 -18 56 -274 122 -68 b 311 61 183 40 222 61 b 390 13 349 61 383 43 b 414 18 392 8 413 14 b 414 25 414 19 413 21 z "},"`":{"ha":492,"x_min":0,"x_max":0,"o":"m 515 717 b 292 965 317 767 358 965 b 240 911 263 965 240 942 b 508 694 240 839 306 743 b 515 717 511 693 518 715 z "},"´":{"ha":492,"x_min":0,"x_max":0,"o":"m 500 911 b 456 956 500 936 483 956 b 136 724 386 956 371 768 b 132 701 133 724 129 701 b 500 911 407 751 500 854 z "},"ˆ":{"ha":453,"x_min":0,"x_max":0,"o":"m 472 726 b 401 992 443 799 411 911 b 379 997 401 994 382 999 b 122 728 315 931 229 818 b 142 719 119 725 139 717 b 336 897 210 776 288 847 b 401 715 353 826 379 756 z "},"˜":{"ha":564,"x_min":0,"x_max":0,"o":"m 656 922 b 632 922 656 926 632 926 b 543 826 632 878 606 826 b 299 913 481 826 392 913 b 132 756 215 913 132 844 b 156 756 132 753 156 753 b 244 851 156 801 182 851 b 489 765 307 851 396 765 b 656 922 572 765 656 835 z "},"¯":{"ha":556,"x_min":0,"x_max":0,"o":"m 632 822 b 632 854 635 831 635 846 l 188 854 b 188 822 185 846 185 831 z "},"˘":{"ha":528,"x_min":0,"x_max":0,"o":"m 683 960 b 661 960 685 963 661 963 b 451 811 644 911 597 811 b 321 960 306 811 306 911 b 297 960 321 963 297 963 b 433 744 269 871 283 744 b 683 960 582 744 656 871 z "},"˙":{"ha":343,"x_min":0,"x_max":0,"o":"m 338 829 b 293 876 338 857 318 876 b 221 799 256 876 221 839 b 265 751 221 771 240 751 b 338 829 303 751 338 789 z "},"¨":{"ha":610,"x_min":0,"x_max":0,"o":"m 604 829 b 560 876 604 857 585 876 b 488 799 521 876 488 839 b 532 751 488 771 506 751 b 604 829 569 751 604 789 z m 338 829 b 293 876 338 857 318 876 b 221 799 256 876 221 839 b 265 751 221 771 240 751 b 338 829 303 751 338 789 z "},"˚":{"ha":393,"x_min":0,"x_max":0,"o":"m 435 871 b 347 960 435 925 399 960 b 210 821 274 960 210 896 b 297 733 210 768 246 733 b 435 871 371 733 435 796 z m 410 869 b 304 756 410 808 358 756 b 235 824 264 756 235 781 b 340 936 235 885 286 936 b 410 869 381 936 410 913 z "},"¸":{"ha":401,"x_min":0,"x_max":0,"o":"m 153 -210 b 96 -57 153 -136 96 -119 b 117 -17 96 -36 108 -22 b 100 -4 121 -14 103 -3 b 40 -101 82 -18 40 -56 b 113 -235 40 -164 113 -194 b 44 -292 113 -269 94 -292 b -7 -251 13 -292 -7 -272 b 19 -207 -7 -237 19 -231 b -11 -175 19 -187 7 -175 b -51 -224 -33 -175 -51 -200 b 46 -314 -51 -274 -17 -314 b 153 -210 97 -314 153 -274 z "},"˝":{"ha":817,"x_min":0,"x_max":0,"o":"m 769 911 b 725 956 769 936 753 956 b 406 724 656 956 640 768 b 401 701 403 724 399 701 b 769 911 676 751 769 854 z m 500 911 b 456 956 500 936 483 956 b 136 724 386 956 371 768 b 132 701 133 724 129 701 b 500 911 407 751 500 854 z "},"˛":{"ha":379,"x_min":0,"x_max":0,"o":"m 197 -15 b 193 7 200 -15 196 7 b -40 -183 42 -18 -40 -103 b 76 -290 -40 -246 7 -290 b 178 -254 114 -290 154 -275 b 178 -232 181 -253 179 -231 b 119 -249 160 -243 136 -249 b 25 -171 54 -249 25 -225 b 197 -15 25 -81 93 -42 z "},"ˇ":{"ha":453,"x_min":0,"x_max":0,"o":"m 581 976 b 561 985 583 979 564 988 b 367 807 493 928 415 857 b 301 989 350 878 324 949 l 231 978 b 301 713 260 906 292 793 b 324 707 301 710 321 706 b 581 976 388 774 474 886 z "},"—":{"ha":1404,"x_min":0,"x_max":0,"o":"m 1347 317 b 1347 339 1350 317 1350 339 l 56 339 b 56 317 53 339 53 317 z "},"Æ":{"ha":1224,"x_min":0,"x_max":0,"o":"m 1268 979 b 1265 983 1268 982 1268 983 l 543 983 b 535 961 539 983 532 961 l 688 961 l -28 79 b -110 22 -65 33 -76 22 l -187 22 b -193 0 -190 22 -196 0 l 88 0 b 94 22 90 0 97 22 l -22 22 b 1 81 -35 22 -33 38 l 240 374 l 513 374 l 404 26 b 393 22 403 24 399 22 l 268 22 b 261 0 265 22 258 0 l 1029 0 b 1035 4 1032 0 1033 1 l 1121 278 b 1099 278 1122 281 1099 281 b 700 22 1053 136 950 22 l 563 22 b 556 26 557 22 554 24 l 708 507 l 765 507 b 874 342 879 507 904 438 b 896 342 872 339 894 339 l 996 665 b 974 665 997 668 975 668 b 774 529 944 569 886 529 l 715 529 l 849 957 b 860 961 850 960 853 961 l 1013 961 b 1175 732 1172 961 1218 868 b 1197 732 1174 729 1197 729 z m 686 924 l 519 396 l 257 396 z "},"ª":{"ha":483,"x_min":0,"x_max":0,"o":"m 553 661 l 532 667 b 453 590 503 610 483 590 b 436 621 435 590 431 603 l 550 1018 l 464 1008 l 451 967 b 385 1018 447 1003 421 1018 b 110 718 242 1018 110 850 b 240 547 110 628 154 547 b 361 646 286 547 329 578 b 418 547 351 582 375 547 b 553 661 463 547 521 579 z m 439 925 l 381 722 b 250 574 351 644 308 574 b 186 658 203 574 186 599 b 311 974 186 744 243 917 b 382 996 333 992 360 996 b 439 925 424 996 443 968 z "},"Ø":{"ha":997,"x_min":0,"x_max":0,"o":"m 971 638 b 875 915 971 757 936 851 b 953 1010 907 956 953 1010 b 936 1022 954 1011 938 1025 b 860 929 936 1022 876 951 b 640 1008 804 981 729 1008 b 68 346 343 1008 68 679 b 163 71 68 228 101 135 l 83 -25 b 101 -36 82 -28 99 -39 l 178 56 b 399 -24 233 4 310 -24 b 971 638 694 -24 971 304 z m 832 894 b 194 111 832 896 194 111 b 181 203 186 138 181 168 b 385 846 181 368 325 749 b 640 985 453 953 538 985 b 832 894 732 985 800 957 z m 858 782 b 653 139 858 617 714 236 b 399 -1 586 32 500 -1 b 206 92 307 -1 238 28 b 843 874 206 92 843 875 b 858 782 853 849 858 817 z "},"Œ":{"ha":1343,"x_min":0,"x_max":0,"o":"m 1388 979 b 1385 983 1388 982 1388 983 l 693 983 b 68 378 397 983 68 696 b 429 0 68 158 231 0 l 1149 0 b 1154 4 1153 0 1154 1 l 1240 278 b 1218 278 1242 281 1218 281 b 819 22 1172 136 1068 22 l 683 22 b 676 26 676 22 675 24 l 828 507 l 886 507 b 993 342 999 507 1022 438 b 1015 342 992 339 1015 339 l 1117 665 b 1093 665 1117 668 1094 668 b 893 529 1063 569 1007 529 l 835 529 l 969 957 b 979 961 969 960 974 961 l 1132 961 b 1294 732 1292 961 1336 868 b 1317 732 1293 729 1317 729 z m 817 957 l 524 26 b 514 22 522 24 519 22 l 435 22 b 190 235 249 22 190 129 b 357 796 190 392 296 704 b 697 961 435 915 558 961 l 810 961 b 817 957 815 961 818 960 z "},"º":{"ha":486,"x_min":0,"x_max":0,"o":"m 517 838 b 361 1018 517 939 446 1018 b 111 726 236 1018 111 874 b 265 547 111 626 181 547 b 517 838 390 547 517 692 z m 435 903 b 368 633 435 849 389 674 b 264 569 346 589 313 569 b 192 663 210 569 192 600 b 258 932 192 717 238 890 b 363 996 281 975 314 996 b 435 903 417 996 435 965 z "},"æ":{"ha":910,"x_min":0,"x_max":0,"o":"m 883 490 b 729 603 883 539 846 603 b 482 486 636 603 547 557 b 290 603 453 558 376 603 b 143 488 206 603 143 543 b 203 429 143 449 171 429 b 256 481 239 429 256 456 b 236 539 256 510 236 517 b 292 581 236 564 257 581 b 403 482 367 581 403 550 b 371 308 403 443 394 397 l 299 308 b 1 121 86 308 1 204 b 175 -12 1 44 58 -12 b 393 106 264 -12 338 33 b 593 -12 429 32 506 -12 b 821 106 686 -12 756 28 l 807 121 b 592 10 751 56 693 10 b 468 144 492 10 468 78 b 496 294 468 190 478 228 l 582 294 b 883 490 764 294 883 379 z m 793 515 b 574 317 793 428 742 317 l 501 317 b 724 581 549 488 599 581 b 793 515 771 581 793 557 z m 364 286 b 181 10 318 122 303 10 b 94 106 122 10 94 38 b 325 286 94 193 156 286 z "},"ı":{"ha":367,"x_min":0,"x_max":0,"o":"m 338 129 l 317 138 b 196 38 276 64 239 38 b 154 92 165 38 154 60 b 290 504 154 181 290 365 b 194 603 290 561 268 603 b 47 479 150 603 90 574 l 69 471 b 157 556 99 532 128 556 b 190 515 183 556 190 544 b 53 86 190 390 53 197 b 163 -12 53 29 89 -12 b 338 129 213 -12 288 28 z "},"ø":{"ha":669,"x_min":0,"x_max":0,"o":"m 607 369 b 544 538 607 439 583 497 b 604 606 563 558 604 606 b 588 619 606 607 589 622 l 529 553 b 389 603 492 585 443 603 b 35 219 203 603 35 419 b 96 53 35 151 58 93 l 38 -15 b 54 -26 36 -18 53 -29 l 111 39 b 253 -12 149 6 197 -12 b 607 369 439 -12 607 171 z m 500 519 l 133 94 b 128 144 129 111 128 128 b 222 482 128 217 192 426 b 389 581 257 542 301 581 b 500 519 451 581 485 556 z m 514 446 b 418 108 514 372 450 164 b 251 8 385 49 340 8 b 140 72 189 8 157 36 b 508 496 140 72 508 497 b 514 446 513 481 514 463 z "},"œ":{"ha":982,"x_min":0,"x_max":0,"o":"m 958 490 b 804 603 958 539 921 603 b 567 496 715 603 632 561 b 381 603 529 563 461 603 b 26 219 194 603 26 419 b 244 -12 26 83 119 -12 b 482 94 333 -12 418 28 b 668 -12 519 28 588 -12 b 896 106 763 -12 831 28 l 882 121 b 668 10 826 56 769 10 b 543 144 567 10 543 78 b 571 297 543 190 553 231 l 657 297 b 958 490 839 297 958 379 z m 868 515 b 649 319 868 428 818 319 l 578 319 b 799 581 625 489 674 581 b 868 515 846 581 868 557 z m 506 446 b 410 108 506 374 442 164 b 243 10 376 49 332 10 b 119 144 143 10 119 78 b 214 482 119 217 183 426 b 381 581 249 542 293 581 b 506 446 482 581 506 513 z "},"ß":{"ha":713,"x_min":0,"x_max":0,"o":"m 706 878 b 528 1032 706 975 640 1032 b 200 682 393 1032 271 900 b -18 -133 153 538 38 39 b -175 -417 -87 -354 -106 -417 b -212 -372 -204 -417 -212 -399 b -187 -294 -212 -351 -187 -325 b -243 -249 -187 -268 -204 -249 b -307 -319 -278 -249 -307 -275 b -181 -439 -307 -386 -261 -439 b 97 -79 -37 -439 29 -289 b 315 706 149 74 269 560 b 522 1010 393 960 469 1010 b 608 903 593 1010 608 979 b 364 561 608 764 517 625 b 371 542 361 558 367 539 b 428 557 393 553 411 557 b 557 432 518 557 557 510 b 464 104 557 363 494 157 b 333 10 431 44 401 10 b 299 49 311 10 299 24 b 321 115 299 67 321 89 b 272 157 321 139 307 157 b 214 85 242 157 214 129 b 326 -12 214 28 263 -12 b 642 353 474 -12 642 157 b 467 575 642 488 564 575 b 433 574 450 575 444 575 b 706 878 578 625 706 735 z "},"Ä":{"ha":882,"x_min":0,"x_max":0,"o":"m 818 22 l 688 22 b 678 26 681 22 678 24 l 678 1004 b 653 1004 678 1008 657 1010 l -29 79 b -97 22 -64 33 -78 22 l -189 22 b -194 0 -192 22 -197 0 l 86 0 b 93 22 89 0 96 22 l -22 22 b 0 81 -39 22 -37 29 l 188 332 l 535 332 l 535 26 b 525 22 535 24 532 22 l 421 22 b 414 0 418 22 411 0 l 811 0 b 818 22 815 0 821 22 z m 535 356 l 204 356 l 535 800 z m 914 1183 b 869 1231 914 1211 894 1231 b 797 1153 831 1231 797 1193 b 842 1106 797 1125 815 1106 b 914 1183 879 1106 914 1143 z m 647 1183 b 603 1231 647 1211 628 1231 b 531 1153 565 1231 531 1193 b 575 1106 531 1125 550 1106 b 647 1183 613 1106 647 1143 z "},"Å":{"ha":882,"x_min":0,"x_max":0,"o":"m 818 22 l 688 22 b 678 26 681 22 678 24 l 678 985 b 800 1122 744 993 800 1053 b 713 1210 800 1175 764 1210 b 575 1071 639 1210 575 1147 b 640 986 575 1026 601 994 l -29 79 b -97 22 -64 33 -78 22 l -189 22 b -194 0 -192 22 -197 0 l 86 0 b 93 22 89 0 96 22 l -22 22 b 0 81 -39 22 -37 29 l 188 332 l 535 332 l 535 26 b 525 22 535 24 532 22 l 421 22 b 414 0 418 22 411 0 l 811 0 b 818 22 815 0 821 22 z m 775 1119 b 669 1006 775 1058 724 1006 b 600 1075 629 1006 600 1031 b 706 1188 600 1135 651 1188 b 775 1119 746 1188 775 1163 z m 535 356 l 204 356 l 535 800 z "},"Ç":{"ha":858,"x_min":0,"x_max":0,"o":"m 940 1004 b 917 1004 940 1007 918 1007 b 839 964 906 982 889 964 b 640 1008 774 964 721 1008 b 68 346 344 1008 68 679 b 394 -22 68 106 214 -22 b 353 -106 376 -40 353 -72 b 425 -239 353 -168 425 -199 b 357 -297 425 -274 407 -297 b 306 -256 325 -297 306 -278 b 331 -212 306 -242 331 -236 b 301 -179 331 -192 318 -179 b 260 -228 279 -179 260 -206 b 357 -319 260 -278 294 -319 b 465 -214 410 -319 465 -278 b 407 -61 465 -140 407 -124 b 426 -24 407 -43 418 -29 b 792 215 565 -12 692 72 b 775 231 793 217 776 233 b 399 -1 667 75 546 -1 b 181 203 265 -1 181 58 b 382 844 181 368 322 747 b 640 985 443 942 522 985 b 831 729 769 985 874 865 b 853 729 829 725 853 725 z "},"É":{"ha":896,"x_min":0,"x_max":0,"o":"m 929 979 b 926 983 929 982 929 983 l 232 983 b 226 961 229 983 222 961 l 350 961 b 358 957 357 961 358 960 l 65 26 b 54 22 64 24 61 22 l -69 22 b -78 0 -74 22 -81 0 l 690 0 b 696 4 693 0 694 1 l 782 278 b 758 278 783 281 760 281 b 361 22 714 136 610 22 l 225 22 b 217 26 218 22 217 24 l 369 508 l 426 508 b 533 342 540 508 564 438 b 557 342 533 339 556 339 l 657 665 b 635 665 658 668 636 668 b 433 529 604 569 547 529 l 376 529 l 510 957 b 521 961 511 960 514 961 l 674 961 b 835 732 833 961 878 868 b 858 732 835 729 858 729 z m 892 1265 b 847 1310 892 1290 875 1310 b 528 1078 778 1310 763 1122 b 524 1056 525 1078 521 1056 b 892 1265 799 1106 892 1208 z "},"Ñ":{"ha":1025,"x_min":0,"x_max":0,"o":"m 1143 985 l 869 985 b 863 963 867 985 860 963 l 979 963 b 986 957 985 963 988 960 l 753 219 l 526 960 b 503 985 519 979 513 985 l 242 985 b 235 963 239 985 232 963 l 350 963 b 358 957 357 963 358 960 l 65 28 b 54 22 64 24 61 22 l -61 22 b -68 0 -65 22 -71 0 l 204 0 b 211 22 208 0 214 22 l 96 22 b 89 28 89 22 88 24 l 372 928 l 676 -18 b 703 -18 679 -24 701 -22 l 1008 957 b 1019 963 1010 960 1013 963 l 1135 963 b 1143 985 1139 963 1146 985 z m 1006 1276 b 982 1276 1006 1281 982 1281 b 893 1181 982 1232 956 1181 b 649 1267 831 1181 742 1267 b 482 1110 565 1267 482 1199 b 506 1110 482 1107 506 1107 b 594 1206 506 1156 532 1206 b 839 1119 657 1206 746 1119 b 1006 1276 922 1119 1006 1189 z "},"Ö":{"ha":997,"x_min":0,"x_max":0,"o":"m 971 638 b 640 1008 971 868 839 1008 b 68 346 343 1008 68 679 b 399 -24 68 115 199 -24 b 971 638 694 -24 971 304 z m 858 782 b 653 139 858 617 714 236 b 399 -1 586 32 500 -1 b 181 203 258 -1 181 65 b 385 846 181 368 325 749 b 640 985 453 953 538 985 b 858 782 779 985 858 919 z m 908 1183 b 864 1231 908 1211 889 1231 b 792 1153 825 1231 792 1193 b 836 1106 792 1125 810 1106 b 908 1183 874 1106 908 1143 z m 642 1183 b 597 1231 642 1211 622 1231 b 525 1153 560 1231 525 1193 b 569 1106 525 1125 544 1106 b 642 1183 607 1106 642 1143 z "},"Ü":{"ha":1032,"x_min":0,"x_max":0,"o":"m 1158 985 l 885 985 b 878 963 882 985 875 963 l 993 963 b 1001 957 1000 963 1001 960 l 792 297 b 460 15 733 111 635 15 b 271 163 343 15 271 72 b 308 356 271 215 286 283 l 496 957 b 507 963 497 960 501 963 l 632 963 b 639 985 635 963 642 985 l 219 985 b 213 963 217 985 210 963 l 338 963 b 344 957 343 963 346 960 l 158 365 b 135 225 143 317 135 269 b 413 -24 135 83 217 -24 b 811 281 625 -24 751 90 l 1025 957 b 1036 963 1026 960 1029 963 l 1151 963 b 1158 985 1154 963 1161 985 z m 996 1183 b 951 1231 996 1211 976 1231 b 879 1153 913 1231 879 1193 b 924 1106 879 1125 897 1106 b 996 1183 961 1106 996 1143 z m 729 1183 b 685 1231 729 1211 710 1231 b 613 1153 647 1231 613 1193 b 657 1106 613 1125 632 1106 b 729 1183 694 1106 729 1143 z "},"á":{"ha":697,"x_min":0,"x_max":0,"o":"m 661 129 l 639 138 b 518 39 606 78 563 39 b 496 100 490 39 483 61 l 656 607 l 549 589 l 524 532 b 419 604 514 579 468 604 b 35 208 206 604 35 388 b 218 -12 35 99 82 -12 b 397 128 294 -12 356 39 b 486 -12 374 49 411 -12 b 661 129 536 -12 610 29 z m 510 490 l 432 249 b 233 17 372 96 317 17 b 135 139 158 17 135 67 b 303 540 135 256 201 463 b 419 582 336 564 363 582 b 510 490 475 582 510 547 z m 688 911 b 643 956 688 936 671 956 b 324 724 574 956 558 768 b 319 701 321 724 317 701 b 688 911 594 751 688 854 z "},"à":{"ha":697,"x_min":0,"x_max":0,"o":"m 661 129 l 639 138 b 518 39 606 78 563 39 b 496 100 490 39 483 61 l 656 607 l 549 589 l 524 532 b 419 604 514 579 468 604 b 35 208 206 604 35 388 b 218 -12 35 99 82 -12 b 397 128 294 -12 356 39 b 486 -12 374 49 411 -12 b 661 129 536 -12 610 29 z m 510 490 l 432 249 b 233 17 372 96 317 17 b 135 139 158 17 135 67 b 303 540 135 256 201 463 b 419 582 336 564 363 582 b 510 490 475 582 510 547 z m 586 717 b 363 965 388 767 429 965 b 311 911 333 965 311 942 b 579 694 311 839 376 743 b 586 717 582 693 589 715 z "},"â":{"ha":697,"x_min":0,"x_max":0,"o":"m 661 129 l 639 138 b 518 39 606 78 563 39 b 496 100 490 39 483 61 l 656 607 l 549 589 l 524 532 b 419 604 514 579 468 604 b 35 208 206 604 35 388 b 218 -12 35 99 82 -12 b 397 128 294 -12 356 39 b 486 -12 374 49 411 -12 b 661 129 536 -12 610 29 z m 510 490 l 432 249 b 233 17 372 96 317 17 b 135 139 158 17 135 67 b 303 540 135 256 201 463 b 419 582 336 564 363 582 b 510 490 475 582 510 547 z m 651 726 b 581 992 622 799 590 911 b 558 997 581 994 561 999 b 301 728 494 931 408 818 b 321 719 299 725 318 717 b 515 897 389 776 467 847 b 581 715 532 826 558 756 z "},"ä":{"ha":697,"x_min":0,"x_max":0,"o":"m 661 129 l 639 138 b 518 39 606 78 563 39 b 496 100 490 39 483 61 l 656 607 l 549 589 l 524 532 b 419 604 514 579 468 604 b 35 208 206 604 35 388 b 218 -12 35 99 82 -12 b 397 128 294 -12 356 39 b 486 -12 374 49 411 -12 b 661 129 536 -12 610 29 z m 510 490 l 432 249 b 233 17 372 96 317 17 b 135 139 158 17 135 67 b 303 540 135 256 201 463 b 419 582 336 564 363 582 b 510 490 475 582 510 547 z m 692 829 b 647 876 692 857 672 876 b 575 799 608 876 575 839 b 619 751 575 771 593 751 b 692 829 657 751 692 789 z m 425 829 b 381 876 425 857 406 876 b 308 799 343 876 308 839 b 353 751 308 771 328 751 b 425 829 390 751 425 789 z "},"ã":{"ha":697,"x_min":0,"x_max":0,"o":"m 661 129 l 639 138 b 518 39 606 78 563 39 b 496 100 490 39 483 61 l 656 607 l 549 589 l 524 532 b 419 604 514 579 468 604 b 35 208 206 604 35 388 b 218 -12 35 99 82 -12 b 397 128 294 -12 356 39 b 486 -12 374 49 411 -12 b 661 129 536 -12 610 29 z m 510 490 l 432 249 b 233 17 372 96 317 17 b 135 139 158 17 135 67 b 303 540 135 256 201 463 b 419 582 336 564 363 582 b 510 490 475 582 510 547 z m 760 922 b 736 922 760 926 736 926 b 647 826 736 878 710 826 b 403 913 585 826 496 913 b 236 756 319 913 236 844 b 260 756 236 753 260 753 b 349 851 260 801 286 851 b 593 765 411 851 500 765 b 760 922 676 765 760 835 z "},"å":{"ha":697,"x_min":0,"x_max":0,"o":"m 661 129 l 639 138 b 518 39 606 78 563 39 b 496 100 490 39 483 61 l 656 607 l 549 589 l 524 532 b 419 604 514 579 468 604 b 35 208 206 604 35 388 b 218 -12 35 99 82 -12 b 397 128 294 -12 356 39 b 486 -12 374 49 411 -12 b 661 129 536 -12 610 29 z m 510 490 l 432 249 b 233 17 372 96 317 17 b 135 139 158 17 135 67 b 303 540 135 256 201 463 b 419 582 336 564 363 582 b 510 490 475 582 510 547 z m 610 871 b 522 960 610 925 574 960 b 385 821 449 960 385 896 b 472 733 385 768 421 733 b 610 871 546 733 610 796 z m 585 869 b 479 756 585 808 533 756 b 410 824 439 756 410 781 b 515 936 410 885 461 936 b 585 869 556 936 585 913 z "},"ç":{"ha":574,"x_min":0,"x_max":0,"o":"m 544 472 b 381 603 544 533 478 603 b 35 219 194 603 35 419 b 246 -11 35 86 125 -7 b 206 -92 228 -29 206 -58 b 278 -225 206 -154 278 -185 b 210 -282 278 -260 260 -282 b 158 -242 178 -282 158 -262 b 185 -197 158 -228 185 -221 b 154 -165 185 -178 172 -165 b 114 -214 132 -165 114 -190 b 211 -304 114 -264 149 -304 b 318 -200 263 -304 318 -264 b 260 -47 318 -126 260 -110 b 276 -11 260 -31 269 -18 b 497 126 361 -3 438 47 l 481 139 b 253 8 422 65 354 8 b 128 144 151 8 128 76 b 224 482 128 217 193 426 b 382 581 257 542 293 581 b 444 542 426 581 444 568 b 424 467 444 513 424 508 b 481 410 424 438 440 410 b 544 472 515 410 544 432 z "},"é":{"ha":579,"x_min":0,"x_max":0,"o":"m 543 489 b 389 603 543 539 506 603 b 35 219 203 603 35 419 b 253 -12 35 82 128 -12 b 481 106 347 -12 415 28 l 467 121 b 253 8 411 54 354 8 b 128 144 151 8 128 76 b 156 297 128 190 138 231 l 242 297 b 543 489 424 297 543 379 z m 454 515 b 233 319 454 428 403 319 l 163 319 b 385 581 210 489 258 581 b 454 515 432 581 454 557 z m 658 911 b 614 956 658 936 642 956 b 294 724 544 956 529 768 b 290 701 292 724 288 701 b 658 911 565 751 658 854 z "},"è":{"ha":579,"x_min":0,"x_max":0,"o":"m 543 489 b 389 603 543 539 506 603 b 35 219 203 603 35 419 b 253 -12 35 82 128 -12 b 481 106 347 -12 415 28 l 467 121 b 253 8 411 54 354 8 b 128 144 151 8 128 76 b 156 297 128 190 138 231 l 242 297 b 543 489 424 297 543 379 z m 454 515 b 233 319 454 428 403 319 l 163 319 b 385 581 210 489 258 581 b 454 515 432 581 454 557 z m 478 717 b 254 965 279 767 321 965 b 203 911 225 965 203 942 b 471 694 203 839 268 743 b 478 717 474 693 481 715 z "},"ê":{"ha":579,"x_min":0,"x_max":0,"o":"m 543 489 b 389 603 543 539 506 603 b 35 219 203 603 35 419 b 253 -12 35 82 128 -12 b 481 106 347 -12 415 28 l 467 121 b 253 8 411 54 354 8 b 128 144 151 8 128 76 b 156 297 128 190 138 231 l 242 297 b 543 489 424 297 543 379 z m 454 515 b 233 319 454 428 403 319 l 163 319 b 385 581 210 489 258 581 b 454 515 432 581 454 557 z m 585 726 b 514 992 556 799 524 911 b 492 997 514 994 494 999 b 235 728 428 931 342 818 b 254 719 232 725 251 717 b 449 897 322 776 400 847 b 514 715 465 826 492 756 z "},"ë":{"ha":579,"x_min":0,"x_max":0,"o":"m 543 489 b 389 603 543 539 506 603 b 35 219 203 603 35 419 b 253 -12 35 82 128 -12 b 481 106 347 -12 415 28 l 467 121 b 253 8 411 54 354 8 b 128 144 151 8 128 76 b 156 297 128 190 138 231 l 242 297 b 543 489 424 297 543 379 z m 454 515 b 233 319 454 428 403 319 l 163 319 b 385 581 210 489 258 581 b 454 515 432 581 454 557 z m 604 829 b 560 876 604 857 585 876 b 488 799 521 876 488 839 b 532 751 488 771 506 751 b 604 829 569 751 604 789 z m 338 829 b 293 876 338 857 318 876 b 221 799 256 876 221 839 b 265 751 221 771 240 751 b 338 829 303 751 338 789 z "},"í":{"ha":367,"x_min":0,"x_max":0,"o":"m 338 129 l 317 138 b 196 38 276 64 239 38 b 154 92 165 38 154 60 b 290 504 154 181 290 365 b 194 603 290 561 268 603 b 47 479 150 603 90 574 l 69 471 b 157 556 99 532 128 556 b 190 515 183 556 190 544 b 53 86 190 390 53 197 b 163 -12 53 29 89 -12 b 338 129 213 -12 288 28 z m 533 911 b 489 956 533 936 517 956 b 169 724 419 956 404 768 b 165 701 167 724 163 701 b 533 911 440 751 533 854 z "},"ì":{"ha":367,"x_min":0,"x_max":0,"o":"m 338 129 l 317 138 b 196 38 276 64 239 38 b 154 92 165 38 154 60 b 290 504 154 181 290 365 b 194 603 290 561 268 603 b 47 479 150 603 90 574 l 69 471 b 157 556 99 532 128 556 b 190 515 183 556 190 544 b 53 86 190 390 53 197 b 163 -12 53 29 89 -12 b 338 129 213 -12 288 28 z m 357 717 b 133 965 158 767 200 965 b 82 911 104 965 82 942 b 350 694 82 839 147 743 b 357 717 353 693 360 715 z "},"î":{"ha":367,"x_min":0,"x_max":0,"o":"m 338 129 l 317 138 b 196 38 276 64 239 38 b 154 92 165 38 154 60 b 290 504 154 181 290 365 b 194 603 290 561 268 603 b 47 479 150 603 90 574 l 69 471 b 157 556 99 532 128 556 b 190 515 183 556 190 544 b 53 86 190 390 53 197 b 163 -12 53 29 89 -12 b 338 129 213 -12 288 28 z m 456 726 b 385 992 426 799 394 911 b 363 997 385 994 365 999 b 106 728 299 931 213 818 b 125 719 103 725 122 717 b 319 897 193 776 271 847 b 385 715 336 826 363 756 z "},"ï":{"ha":367,"x_min":0,"x_max":0,"o":"m 338 129 l 317 138 b 196 38 276 64 239 38 b 154 92 165 38 154 60 b 290 504 154 181 290 365 b 194 603 290 561 268 603 b 47 479 150 603 90 574 l 69 471 b 157 556 99 532 128 556 b 190 515 183 556 190 544 b 53 86 190 390 53 197 b 163 -12 53 29 89 -12 b 338 129 213 -12 288 28 z m 471 829 b 426 876 471 857 451 876 b 354 799 388 876 354 839 b 399 751 354 771 372 751 b 471 829 436 751 471 789 z m 204 829 b 160 876 204 857 185 876 b 88 799 122 876 88 839 b 132 751 88 771 107 751 b 204 829 169 751 204 789 z "},"ñ":{"ha":731,"x_min":0,"x_max":0,"o":"m 708 129 l 688 138 b 565 38 646 64 608 38 b 524 92 536 38 524 60 b 649 493 524 181 649 376 b 553 603 649 574 593 603 b 258 374 471 603 339 519 b 206 603 317 532 292 603 b 50 479 163 603 93 574 l 71 471 b 157 556 100 532 129 556 b 186 490 185 556 199 529 l 32 0 l 140 0 l 238 308 b 475 529 329 463 419 529 b 538 471 508 529 538 504 b 418 86 538 344 418 197 b 529 -12 418 29 454 -12 b 708 129 579 -12 658 28 z m 731 922 b 707 922 731 926 707 926 b 618 826 707 878 681 826 b 374 913 556 826 467 913 b 207 756 290 913 207 844 b 231 756 207 753 231 753 b 319 851 231 801 257 851 b 564 765 382 851 471 765 b 731 922 647 765 731 835 z "},"ó":{"ha":669,"x_min":0,"x_max":0,"o":"m 607 369 b 389 603 607 507 514 603 b 35 219 203 603 35 419 b 253 -12 35 82 128 -12 b 607 369 439 -12 607 171 z m 514 446 b 418 108 514 372 450 164 b 251 8 385 49 340 8 b 128 144 151 8 128 76 b 222 482 128 217 192 426 b 389 581 257 542 301 581 b 514 446 490 581 514 513 z m 663 911 b 618 956 663 936 646 956 b 299 724 549 956 533 768 b 294 701 296 724 292 701 b 663 911 569 751 663 854 z "},"ò":{"ha":669,"x_min":0,"x_max":0,"o":"m 607 369 b 389 603 607 507 514 603 b 35 219 203 603 35 419 b 253 -12 35 82 128 -12 b 607 369 439 -12 607 171 z m 514 446 b 418 108 514 372 450 164 b 251 8 385 49 340 8 b 128 144 151 8 128 76 b 222 482 128 217 192 426 b 389 581 257 542 301 581 b 514 446 490 581 514 513 z m 503 717 b 279 965 304 767 346 965 b 228 911 250 965 228 942 b 496 694 228 839 293 743 b 503 717 499 693 506 715 z "},"ô":{"ha":669,"x_min":0,"x_max":0,"o":"m 607 369 b 389 603 607 507 514 603 b 35 219 203 603 35 419 b 253 -12 35 82 128 -12 b 607 369 439 -12 607 171 z m 514 446 b 418 108 514 372 450 164 b 251 8 385 49 340 8 b 128 144 151 8 128 76 b 222 482 128 217 192 426 b 389 581 257 542 301 581 b 514 446 490 581 514 513 z m 601 726 b 531 992 572 799 540 911 b 508 997 531 994 511 999 b 251 728 444 931 358 818 b 271 719 249 725 268 717 b 465 897 339 776 417 847 b 531 715 482 826 508 756 z "},"ö":{"ha":669,"x_min":0,"x_max":0,"o":"m 607 369 b 389 603 607 507 514 603 b 35 219 203 603 35 419 b 253 -12 35 82 128 -12 b 607 369 439 -12 607 171 z m 514 446 b 418 108 514 372 450 164 b 251 8 385 49 340 8 b 128 144 151 8 128 76 b 222 482 128 217 192 426 b 389 581 257 542 301 581 b 514 446 490 581 514 513 z m 608 829 b 564 876 608 857 589 876 b 492 799 525 876 492 839 b 536 751 492 771 510 751 b 608 829 574 751 608 789 z m 342 829 b 297 876 342 857 322 876 b 225 799 260 876 225 839 b 269 751 225 771 244 751 b 342 829 307 751 342 789 z "},"õ":{"ha":669,"x_min":0,"x_max":0,"o":"m 607 369 b 389 603 607 507 514 603 b 35 219 203 603 35 419 b 253 -12 35 82 128 -12 b 607 369 439 -12 607 171 z m 514 446 b 418 108 514 372 450 164 b 251 8 385 49 340 8 b 128 144 151 8 128 76 b 222 482 128 217 192 426 b 389 581 257 542 301 581 b 514 446 490 581 514 513 z m 707 922 b 683 922 707 926 683 926 b 594 826 683 878 657 826 b 350 913 532 826 443 913 b 183 756 267 913 183 844 b 207 756 183 753 207 753 b 296 851 207 801 233 851 b 540 765 358 851 447 765 b 707 922 624 765 707 835 z "},"ú":{"ha":717,"x_min":0,"x_max":0,"o":"m 688 128 l 665 138 b 544 38 624 64 588 38 b 517 82 518 38 508 57 l 679 599 l 567 590 l 471 282 b 229 51 375 117 294 51 b 164 115 196 51 164 81 b 290 504 164 242 290 393 b 196 603 290 556 267 603 b 49 479 151 603 92 574 l 71 471 b 157 556 99 532 129 556 b 190 515 181 556 190 546 b 60 117 190 426 60 233 b 175 -12 60 35 108 -12 b 447 208 257 -12 365 63 b 503 -14 389 53 419 -14 b 688 128 551 -14 636 28 z m 633 911 b 589 956 633 936 617 956 b 269 724 519 956 504 768 b 265 701 267 724 263 701 b 633 911 540 751 633 854 z "},"ù":{"ha":717,"x_min":0,"x_max":0,"o":"m 688 128 l 665 138 b 544 38 624 64 588 38 b 517 82 518 38 508 57 l 679 599 l 567 590 l 471 282 b 229 51 375 117 294 51 b 164 115 196 51 164 81 b 290 504 164 242 290 393 b 196 603 290 556 267 603 b 49 479 151 603 92 574 l 71 471 b 157 556 99 532 129 556 b 190 515 181 556 190 546 b 60 117 190 426 60 233 b 175 -12 60 35 108 -12 b 447 208 257 -12 365 63 b 503 -14 389 53 419 -14 b 688 128 551 -14 636 28 z m 536 717 b 313 965 338 767 379 965 b 261 911 283 965 261 942 b 529 694 261 839 326 743 b 536 717 532 693 539 715 z "},"û":{"ha":717,"x_min":0,"x_max":0,"o":"m 688 128 l 665 138 b 544 38 624 64 588 38 b 517 82 518 38 508 57 l 679 599 l 567 590 l 471 282 b 229 51 375 117 294 51 b 164 115 196 51 164 81 b 290 504 164 242 290 393 b 196 603 290 556 267 603 b 49 479 151 603 92 574 l 71 471 b 157 556 99 532 129 556 b 190 515 181 556 190 546 b 60 117 190 426 60 233 b 175 -12 60 35 108 -12 b 447 208 257 -12 365 63 b 503 -14 389 53 419 -14 b 688 128 551 -14 636 28 z m 626 726 b 556 992 597 799 565 911 b 533 997 556 994 536 999 b 276 728 469 931 383 818 b 296 719 274 725 293 717 b 490 897 364 776 442 847 b 556 715 507 826 533 756 z "},"ü":{"ha":717,"x_min":0,"x_max":0,"o":"m 688 128 l 665 138 b 544 38 624 64 588 38 b 517 82 518 38 508 57 l 679 599 l 567 590 l 471 282 b 229 51 375 117 294 51 b 164 115 196 51 164 81 b 290 504 164 242 290 393 b 196 603 290 556 267 603 b 49 479 151 603 92 574 l 71 471 b 157 556 99 532 129 556 b 190 515 181 556 190 546 b 60 117 190 426 60 233 b 175 -12 60 35 108 -12 b 447 208 257 -12 365 63 b 503 -14 389 53 419 -14 b 688 128 551 -14 636 28 z m 654 829 b 610 876 654 857 635 876 b 538 799 571 876 538 839 b 582 751 538 771 556 751 b 654 829 619 751 654 789 z m 388 829 b 343 876 388 857 368 876 b 271 799 306 876 271 839 b 315 751 271 771 290 751 b 388 829 353 751 388 789 z "},"°":{"ha":393,"x_min":0,"x_max":0,"o":"m 454 910 b 367 999 454 964 418 999 b 229 860 293 999 229 935 b 317 772 229 807 265 772 b 454 910 390 772 454 835 z m 429 908 b 324 794 429 847 378 794 b 254 863 283 794 254 819 b 360 975 254 924 306 975 b 429 908 400 975 429 951 z "},"®":{"ha":1154,"x_min":0,"x_max":0,"o":"m 1114 492 b 611 1008 1114 778 888 1008 b 108 492 335 1008 108 778 b 611 -24 108 207 335 -24 b 1114 492 888 -24 1114 207 z m 1092 492 b 611 0 1092 219 875 0 b 132 492 347 0 132 219 b 611 985 132 765 347 985 b 1092 492 875 985 1092 765 z m 940 219 b 932 233 942 219 933 235 b 883 210 921 222 906 210 b 838 275 856 210 838 233 l 838 350 b 632 507 838 446 776 507 b 811 650 735 507 811 572 b 615 794 811 732 738 794 l 361 794 b 361 778 360 794 360 778 l 435 778 b 440 775 439 778 440 778 l 440 225 b 435 221 440 222 439 221 l 361 221 b 361 204 360 221 360 204 l 628 204 b 628 221 631 204 631 221 l 539 221 b 533 225 535 221 533 222 l 533 497 l 611 497 b 740 394 686 497 740 468 l 740 351 b 864 190 740 233 796 190 b 940 219 900 190 924 201 z m 718 647 b 611 514 718 540 692 514 l 533 514 l 533 775 b 539 778 533 778 535 778 l 593 778 b 718 647 671 778 718 751 z "},"©":{"ha":1154,"x_min":0,"x_max":0,"o":"m 1114 492 b 611 1008 1114 778 888 1008 b 108 492 335 1008 108 778 b 611 -24 108 207 335 -24 b 1114 492 888 -24 1114 207 z m 1092 492 b 611 0 1092 219 875 0 b 132 492 347 0 132 219 b 611 985 132 765 347 985 b 1092 492 875 985 1092 765 z m 814 192 l 814 388 b 799 388 814 390 799 390 b 621 207 799 279 722 207 b 514 238 583 207 542 215 b 447 500 469 278 447 360 b 514 761 447 640 469 722 b 617 793 542 786 579 793 b 783 636 697 793 783 718 b 799 636 783 635 799 635 l 799 807 b 783 807 799 808 783 808 b 742 786 781 797 764 786 b 617 810 704 786 657 810 b 347 500 461 810 347 665 b 621 190 347 333 464 190 b 761 217 667 190 722 217 b 799 192 785 217 797 201 b 814 192 799 190 814 190 z "},"™":{"ha":632,"x_min":0,"x_max":0,"o":"m 765 733 b 765 750 767 733 767 750 l 733 750 b 732 751 732 750 732 751 l 732 965 b 733 965 732 965 732 965 l 765 965 b 765 985 767 965 767 985 l 679 985 b 675 978 679 985 676 982 l 607 797 l 542 978 b 535 985 540 982 538 985 l 447 985 l 447 965 l 481 965 b 483 965 482 965 483 965 l 483 751 b 481 750 483 751 482 750 l 447 750 l 447 733 l 538 733 l 538 750 l 506 750 b 503 751 504 750 503 751 l 503 950 l 588 728 b 601 728 589 726 601 726 l 685 950 l 685 751 b 682 750 685 751 683 750 l 650 750 b 650 733 649 750 649 733 z m 410 906 l 410 983 l 408 985 l 183 985 l 182 983 l 182 906 b 203 906 182 904 203 904 b 261 965 203 946 208 965 l 268 965 b 269 965 269 965 269 965 l 269 751 b 268 750 269 751 269 750 l 236 750 b 236 733 235 750 235 733 l 354 733 l 354 750 l 321 750 b 318 751 318 750 318 751 l 318 965 b 321 965 318 965 318 965 l 329 965 b 389 906 383 965 389 946 b 410 906 389 904 410 904 z "},"Ω":{"ha":694,"x_min":0,"x_max":0,"o":"m 974 919 b 850 1032 974 979 950 1032 b 689 961 792 1032 747 1011 b 540 1032 663 1003 618 1032 b 228 682 407 1032 294 889 b 201 599 218 656 211 633 l 58 599 b 51 578 56 599 49 578 l 196 578 b 11 -133 136 365 71 57 b -147 -417 -60 -354 -78 -417 b -185 -372 -176 -417 -185 -399 b -161 -294 -185 -351 -161 -325 b -217 -249 -161 -268 -176 -249 b -283 -328 -251 -249 -283 -283 b -162 -439 -283 -394 -243 -439 b -50 -390 -112 -439 -89 -421 b 88 -439 -19 -424 24 -439 b 403 -85 222 -439 336 -290 b 604 578 453 68 544 357 l 767 578 b 774 599 769 578 776 599 l 611 599 b 642 706 622 640 631 671 b 833 1010 722 961 781 1010 b 876 965 867 1010 876 996 b 851 888 876 946 851 917 b 907 840 851 861 868 840 b 974 919 942 840 974 875 z m 674 944 b 526 682 617 892 561 792 b 501 599 518 656 510 633 l 311 599 b 343 706 322 640 332 671 b 551 1008 424 961 472 1008 b 674 944 607 1008 650 983 z m 494 578 b 293 -122 435 365 353 67 b 76 -415 213 -378 154 -415 b -35 -372 29 -415 -6 -404 b 126 -79 31 -312 82 -214 b 306 578 176 74 246 357 z "},"√":{"ha":992,"x_min":0,"x_max":0,"o":"m 1067 1026 b 1051 1032 1067 1031 1054 1036 b 949 997 1038 1018 1022 997 b 850 1032 919 1022 890 1032 b 690 961 792 1032 744 1008 b 540 1032 664 1004 617 1032 b 226 682 406 1032 294 888 b 203 599 218 656 211 632 l 60 599 b 51 576 56 599 49 576 l 196 576 b 10 -133 136 364 69 57 b -147 -417 -60 -354 -78 -417 b -185 -372 -176 -417 -185 -400 b -160 -296 -185 -351 -160 -325 b -215 -249 -160 -269 -176 -249 b -282 -329 -251 -249 -282 -283 b -162 -439 -282 -394 -243 -439 b -51 -390 -114 -439 -90 -422 b 88 -439 -19 -424 22 -439 b 403 -85 221 -439 335 -290 b 604 576 453 68 544 356 l 817 576 l 683 157 b 764 -12 651 56 676 -12 b 939 129 814 -12 888 28 l 917 138 b 796 39 876 64 826 39 b 769 82 771 39 761 57 z m 939 975 l 822 599 l 611 599 b 642 706 622 640 631 671 b 846 1010 724 967 781 1010 b 939 975 889 1010 907 1001 z m 674 943 b 526 682 615 889 563 794 b 501 599 517 656 511 632 l 313 599 b 342 706 324 640 331 671 b 551 1008 422 961 472 1008 b 674 943 607 1008 650 986 z m 494 576 b 292 -124 436 364 351 67 b 76 -417 211 -378 156 -417 b -32 -374 31 -417 -4 -406 b 125 -79 29 -314 81 -214 b 306 576 175 74 246 356 z "},"≈":{"ha":994,"x_min":0,"x_max":0,"o":"m 997 871 b 844 1032 997 964 946 1032 b 692 964 790 1032 740 1008 b 546 1032 661 1010 621 1032 b 226 682 413 1032 293 889 b 201 599 217 656 211 633 l 58 599 b 50 578 56 599 47 578 l 194 578 b 10 -133 135 365 69 57 b -149 -417 -61 -354 -79 -417 b -186 -372 -178 -417 -186 -399 b -161 -294 -186 -351 -161 -325 b -217 -249 -161 -268 -178 -249 b -283 -328 -251 -249 -283 -283 b -164 -439 -283 -394 -244 -439 b -51 -390 -114 -439 -90 -421 b 86 -439 -21 -424 22 -439 b 401 -85 221 -439 335 -290 b 603 578 451 68 543 357 l 810 578 b 653 86 793 481 653 179 b 753 -12 653 29 679 -12 b 938 129 803 -12 888 28 l 917 138 b 796 39 875 65 826 39 b 753 92 765 39 753 60 b 942 618 753 157 889 461 b 926 624 942 622 929 626 b 810 599 907 604 900 599 l 610 599 b 640 706 621 640 629 671 b 838 1010 721 961 779 1010 b 914 940 893 1010 914 996 b 869 840 914 900 869 885 b 928 788 869 806 889 788 b 997 871 964 788 997 826 z m 676 947 b 525 682 614 885 561 793 b 500 599 517 656 510 633 l 311 599 b 342 706 322 640 331 671 b 557 1008 422 961 478 1008 b 676 947 613 1008 647 990 z m 493 578 b 292 -122 435 365 351 67 b 75 -415 211 -378 154 -415 b -36 -375 29 -415 -7 -407 b 125 -79 29 -314 81 -214 b 304 578 175 74 244 357 z "},"À":{"ha":882,"x_min":0,"x_max":0,"o":"m 818 22 l 688 22 b 678 26 681 22 678 24 l 678 1004 b 653 1004 678 1008 657 1010 l -29 79 b -97 22 -64 33 -78 22 l -189 22 b -194 0 -192 22 -197 0 l 86 0 b 93 22 89 0 96 22 l -22 22 b 0 81 -39 22 -37 29 l 188 332 l 535 332 l 535 26 b 525 22 535 24 532 22 l 421 22 b 414 0 418 22 411 0 l 811 0 b 818 22 815 0 821 22 z m 535 356 l 204 356 l 535 800 z m 761 1071 b 538 1319 563 1121 604 1319 b 486 1265 508 1319 486 1296 b 754 1049 486 1193 551 1097 b 761 1071 757 1047 764 1069 z "},"Ã":{"ha":882,"x_min":0,"x_max":0,"o":"m 818 22 l 688 22 b 678 26 681 22 678 24 l 678 1004 b 653 1004 678 1008 657 1010 l -29 79 b -97 22 -64 33 -78 22 l -189 22 b -194 0 -192 22 -197 0 l 86 0 b 93 22 89 0 96 22 l -22 22 b 0 81 -39 22 -37 29 l 188 332 l 535 332 l 535 26 b 525 22 535 24 532 22 l 421 22 b 414 0 418 22 411 0 l 811 0 b 818 22 815 0 821 22 z m 535 356 l 204 356 l 535 800 z m 1014 1276 b 990 1276 1014 1281 990 1281 b 901 1181 990 1232 964 1181 b 657 1267 839 1181 750 1267 b 490 1110 574 1267 490 1199 b 514 1110 490 1107 514 1107 b 603 1206 514 1156 540 1206 b 847 1119 665 1206 754 1119 b 1014 1276 931 1119 1014 1189 z "},"Õ":{"ha":997,"x_min":0,"x_max":0,"o":"m 971 638 b 640 1008 971 868 839 1008 b 68 346 343 1008 68 679 b 399 -24 68 115 199 -24 b 971 638 694 -24 971 304 z m 858 782 b 653 139 858 617 714 236 b 399 -1 586 32 500 -1 b 181 203 258 -1 181 65 b 385 846 181 368 325 749 b 640 985 453 953 538 985 b 858 782 779 985 858 919 z m 981 1276 b 957 1276 981 1281 957 1281 b 868 1181 957 1232 931 1181 b 624 1267 806 1181 717 1267 b 457 1110 540 1267 457 1199 b 481 1110 457 1107 481 1107 b 569 1206 481 1156 507 1206 b 814 1119 632 1206 721 1119 b 981 1276 897 1119 981 1189 z "},"ÿ":{"ha":622,"x_min":0,"x_max":0,"o":"m 668 565 b 626 604 668 590 657 604 b 340 168 539 604 454 446 l 304 364 b 176 604 267 568 231 604 b 19 471 117 604 71 564 l 38 457 b 107 519 64 503 82 519 b 214 297 139 519 176 506 l 267 -10 b -47 -415 161 -256 96 -415 b -89 -378 -76 -415 -89 -406 b -64 -299 -89 -357 -64 -331 b -121 -250 -64 -271 -81 -250 b -186 -325 -157 -250 -186 -278 b -53 -437 -186 -392 -133 -437 b 311 36 108 -437 182 -279 b 618 513 465 411 497 475 b 668 565 644 521 668 535 z m 604 829 b 560 876 604 857 585 876 b 488 799 521 876 488 839 b 532 751 488 771 506 751 b 604 829 569 751 604 789 z m 338 829 b 293 876 338 857 318 876 b 221 799 256 876 221 839 b 265 751 221 771 240 751 b 338 829 303 751 338 789 z "},"Ÿ":{"ha":878,"x_min":0,"x_max":0,"o":"m 1074 985 l 793 985 b 788 963 790 985 785 963 l 906 963 b 871 904 915 963 914 958 l 539 481 l 453 957 b 460 963 451 958 454 963 l 610 963 b 617 985 613 963 619 985 l 168 985 b 160 963 164 985 157 963 l 289 963 b 299 957 293 963 297 960 l 393 456 l 258 28 b 247 22 257 24 253 22 l 122 22 b 115 0 119 22 113 0 l 535 0 b 542 22 538 0 544 22 l 417 22 b 410 28 411 22 408 24 l 543 453 l 900 904 b 960 963 942 957 951 963 l 1067 963 b 1074 985 1069 963 1076 985 z m 933 1183 b 889 1231 933 1211 914 1231 b 817 1153 850 1231 817 1193 b 861 1106 817 1125 835 1106 b 933 1183 899 1106 933 1143 z m 667 1183 b 622 1231 667 1211 647 1231 b 550 1153 585 1231 550 1193 b 594 1106 550 1125 569 1106 b 667 1183 632 1106 667 1143 z "},"Â":{"ha":882,"x_min":0,"x_max":0,"o":"m 818 22 l 688 22 b 678 26 681 22 678 24 l 678 1004 b 653 1004 678 1008 657 1010 l -29 79 b -97 22 -64 33 -78 22 l -189 22 b -194 0 -192 22 -197 0 l 86 0 b 93 22 89 0 96 22 l -22 22 b 0 81 -39 22 -37 29 l 188 332 l 535 332 l 535 26 b 525 22 535 24 532 22 l 421 22 b 414 0 418 22 411 0 l 811 0 b 818 22 815 0 821 22 z m 535 356 l 204 356 l 535 800 z m 872 1081 b 801 1346 843 1153 811 1265 b 779 1351 801 1349 782 1353 b 522 1082 715 1285 629 1172 b 542 1074 519 1079 539 1071 b 736 1251 610 1131 688 1201 b 801 1069 753 1181 779 1110 z "},"Ê":{"ha":885,"x_min":0,"x_max":0,"o":"m 929 979 b 926 983 929 982 929 983 l 232 983 b 226 961 229 983 222 961 l 350 961 b 358 957 357 961 358 960 l 65 26 b 54 22 64 24 61 22 l -69 22 b -78 0 -74 22 -81 0 l 690 0 b 696 4 693 0 694 1 l 782 278 b 758 278 783 281 760 281 b 361 22 714 136 610 22 l 225 22 b 217 26 218 22 217 24 l 369 508 l 426 508 b 533 342 540 508 564 438 b 557 342 533 339 556 339 l 657 665 b 635 665 658 668 636 668 b 433 529 604 569 547 529 l 376 529 l 510 957 b 521 961 511 960 514 961 l 674 961 b 835 732 833 961 878 868 b 858 732 835 729 858 729 z m 835 1081 b 764 1346 806 1153 774 1265 b 742 1351 764 1349 744 1353 b 485 1082 678 1285 592 1172 b 504 1074 482 1079 501 1071 b 699 1251 572 1131 650 1201 b 764 1069 715 1181 742 1110 z "},"Á":{"ha":882,"x_min":0,"x_max":0,"o":"m 818 22 l 688 22 b 678 26 681 22 678 24 l 678 1004 b 653 1004 678 1008 657 1010 l -29 79 b -97 22 -64 33 -78 22 l -189 22 b -194 0 -192 22 -197 0 l 86 0 b 93 22 89 0 96 22 l -22 22 b 0 81 -39 22 -37 29 l 188 332 l 535 332 l 535 26 b 525 22 535 24 532 22 l 421 22 b 414 0 418 22 411 0 l 811 0 b 818 22 815 0 821 22 z m 535 356 l 204 356 l 535 800 z m 1008 1265 b 964 1310 1008 1290 992 1310 b 644 1078 894 1310 879 1122 b 640 1056 642 1078 638 1056 b 1008 1265 915 1106 1008 1208 z "},"Ë":{"ha":885,"x_min":0,"x_max":0,"o":"m 929 979 b 926 983 929 982 929 983 l 232 983 b 226 961 229 983 222 961 l 350 961 b 358 957 357 961 358 960 l 65 26 b 54 22 64 24 61 22 l -69 22 b -78 0 -74 22 -81 0 l 690 0 b 696 4 693 0 694 1 l 782 278 b 758 278 783 281 760 281 b 361 22 714 136 610 22 l 225 22 b 217 26 218 22 217 24 l 369 508 l 426 508 b 533 342 540 508 564 438 b 557 342 533 339 556 339 l 657 665 b 635 665 658 668 636 668 b 433 529 604 569 547 529 l 376 529 l 510 957 b 521 961 511 960 514 961 l 674 961 b 835 732 833 961 878 868 b 858 732 835 729 858 729 z m 886 1183 b 842 1231 886 1211 867 1231 b 769 1153 803 1231 769 1193 b 814 1106 769 1125 788 1106 b 886 1183 851 1106 886 1143 z m 619 1183 b 575 1231 619 1211 600 1231 b 503 1153 538 1231 503 1193 b 547 1106 503 1125 522 1106 b 619 1183 585 1106 619 1143 z "},"È":{"ha":885,"x_min":0,"x_max":0,"o":"m 929 979 b 926 983 929 982 929 983 l 232 983 b 226 961 229 983 222 961 l 350 961 b 358 957 357 961 358 960 l 65 26 b 54 22 64 24 61 22 l -69 22 b -78 0 -74 22 -81 0 l 690 0 b 696 4 693 0 694 1 l 782 278 b 758 278 783 281 760 281 b 361 22 714 136 610 22 l 225 22 b 217 26 218 22 217 24 l 369 508 l 426 508 b 533 342 540 508 564 438 b 557 342 533 339 556 339 l 657 665 b 635 665 658 668 636 668 b 433 529 604 569 547 529 l 376 529 l 510 957 b 521 961 511 960 514 961 l 674 961 b 835 732 833 961 878 868 b 858 732 835 729 858 729 z m 794 1071 b 571 1319 596 1121 638 1319 b 519 1265 542 1319 519 1296 b 788 1049 519 1193 585 1097 b 794 1071 790 1047 797 1069 z "},"Í":{"ha":535,"x_min":0,"x_max":0,"o":"m 653 985 l 233 985 b 226 963 231 985 224 963 l 350 963 b 358 957 357 963 358 960 l 65 28 b 54 22 64 24 61 22 l -69 22 b -76 0 -72 22 -79 0 l 343 0 b 350 22 346 0 353 22 l 225 22 b 218 28 218 22 217 24 l 510 957 b 521 963 511 960 514 963 l 646 963 b 653 985 649 963 656 985 z m 733 1265 b 689 1310 733 1290 717 1310 b 369 1078 619 1310 604 1122 b 365 1056 367 1078 363 1056 b 733 1265 640 1106 733 1208 z "},"Î":{"ha":535,"x_min":0,"x_max":0,"o":"m 653 985 l 233 985 b 226 963 231 985 224 963 l 350 963 b 358 957 357 963 358 960 l 65 28 b 54 22 64 24 61 22 l -69 22 b -76 0 -72 22 -79 0 l 343 0 b 350 22 346 0 353 22 l 225 22 b 218 28 218 22 217 24 l 510 957 b 521 963 511 960 514 963 l 646 963 b 653 985 649 963 656 985 z m 660 1081 b 589 1346 631 1153 599 1265 b 567 1351 589 1349 569 1353 b 310 1082 503 1285 417 1172 b 329 1074 307 1079 326 1071 b 524 1251 397 1131 475 1201 b 589 1069 540 1181 567 1110 z "},"Ï":{"ha":535,"x_min":0,"x_max":0,"o":"m 653 985 l 233 985 b 226 963 231 985 224 963 l 350 963 b 358 957 357 963 358 960 l 65 28 b 54 22 64 24 61 22 l -69 22 b -76 0 -72 22 -79 0 l 343 0 b 350 22 346 0 353 22 l 225 22 b 218 28 218 22 217 24 l 510 957 b 521 963 511 960 514 963 l 646 963 b 653 985 649 963 656 985 z m 701 1183 b 657 1231 701 1211 682 1231 b 585 1153 618 1231 585 1193 b 629 1106 585 1125 603 1106 b 701 1183 667 1106 701 1143 z m 435 1183 b 390 1231 435 1211 415 1231 b 318 1153 353 1231 318 1193 b 363 1106 318 1125 338 1106 b 435 1183 400 1106 435 1143 z "},"Ì":{"ha":535,"x_min":0,"x_max":0,"o":"m 653 985 l 233 985 b 226 963 231 985 224 963 l 350 963 b 358 957 357 963 358 960 l 65 28 b 54 22 64 24 61 22 l -69 22 b -76 0 -72 22 -79 0 l 343 0 b 350 22 346 0 353 22 l 225 22 b 218 28 218 22 217 24 l 510 957 b 521 963 511 960 514 963 l 646 963 b 653 985 649 963 656 985 z m 615 1071 b 392 1319 417 1121 458 1319 b 340 1265 363 1319 340 1296 b 608 1049 340 1193 406 1097 b 615 1071 611 1047 618 1069 z "},"Ó":{"ha":997,"x_min":0,"x_max":0,"o":"m 971 638 b 640 1008 971 868 839 1008 b 68 346 343 1008 68 679 b 399 -24 68 115 199 -24 b 971 638 694 -24 971 304 z m 858 782 b 653 139 858 617 714 236 b 399 -1 586 32 500 -1 b 181 203 258 -1 181 65 b 385 846 181 368 325 749 b 640 985 453 953 538 985 b 858 782 779 985 858 919 z m 938 1265 b 893 1310 938 1290 921 1310 b 574 1078 824 1310 808 1122 b 569 1056 571 1078 567 1056 b 938 1265 844 1106 938 1208 z "},"Ô":{"ha":997,"x_min":0,"x_max":0,"o":"m 971 638 b 640 1008 971 868 839 1008 b 68 346 343 1008 68 679 b 399 -24 68 115 199 -24 b 971 638 694 -24 971 304 z m 858 782 b 653 139 858 617 714 236 b 399 -1 586 32 500 -1 b 181 203 258 -1 181 65 b 385 846 181 368 325 749 b 640 985 453 953 538 985 b 858 782 779 985 858 919 z m 864 1081 b 793 1346 835 1153 803 1265 b 771 1351 793 1349 774 1353 b 514 1082 707 1285 621 1172 b 533 1074 511 1079 531 1071 b 728 1251 601 1131 679 1201 b 793 1069 744 1181 771 1110 z "},"":{"ha":1343,"x_min":0,"x_max":0,"o":"m 1204 0 l 1204 1042 l 139 1042 l 139 0 z m 1139 722 b 1138 721 1139 721 1138 721 b 1119 722 1131 721 1128 722 b 1100 721 1111 722 1108 721 b 1099 724 1099 721 1099 724 b 1099 725 1099 725 1099 725 b 1108 732 1107 726 1108 728 b 1107 738 1108 735 1108 736 l 1103 758 l 1068 758 l 1074 738 b 1086 725 1074 731 1074 728 b 1086 722 1086 725 1086 724 b 1086 721 1086 721 1086 721 b 1069 722 1079 721 1078 722 b 1049 721 1061 722 1057 721 b 1047 724 1047 721 1047 724 b 1047 725 1047 725 1047 725 b 1058 732 1057 726 1058 728 b 1057 738 1058 735 1058 736 l 1047 783 b 1032 796 1044 790 1044 794 b 1032 799 1032 796 1032 797 b 1032 800 1032 800 1032 800 b 1050 799 1039 800 1043 799 b 1069 800 1058 799 1061 800 b 1071 797 1071 800 1071 799 b 1071 796 1071 796 1071 796 b 1061 789 1063 794 1061 792 b 1061 783 1061 786 1061 785 l 1067 764 l 1101 764 l 1097 783 b 1085 796 1094 790 1094 794 b 1083 799 1083 796 1083 797 b 1083 800 1083 800 1083 800 b 1101 799 1090 800 1093 799 b 1121 800 1108 799 1114 800 b 1124 797 1122 800 1124 799 b 1122 796 1124 796 1124 796 b 1111 789 1114 794 1111 792 b 1113 783 1111 786 1111 785 l 1124 738 b 1136 725 1125 731 1125 728 b 1139 722 1138 725 1139 724 z m 776 953 b 774 953 776 953 775 953 l 774 953 b 758 965 771 961 765 965 b 754 961 756 965 754 964 l 754 931 b 761 922 754 925 756 924 b 763 921 763 922 763 922 b 761 919 763 919 763 919 b 750 919 757 919 756 919 b 738 919 744 919 742 919 b 736 921 736 919 736 919 b 738 922 736 922 736 922 b 744 931 744 924 744 925 l 744 961 b 740 965 744 964 744 965 b 728 953 732 965 731 963 b 726 953 728 953 728 953 b 725 953 725 953 725 953 b 728 969 726 960 728 964 b 750 968 732 968 733 968 b 771 969 767 968 768 968 b 776 953 774 964 774 960 z m 964 750 b 933 719 964 728 946 719 b 883 772 908 719 883 743 b 914 803 883 794 901 803 b 964 750 939 803 964 778 z m 699 919 b 686 919 693 919 690 919 b 674 919 679 919 678 919 b 674 921 674 919 674 919 b 674 922 674 922 674 922 b 681 931 681 924 681 925 l 681 943 l 657 943 l 657 931 b 664 922 657 925 657 924 b 664 921 664 922 664 922 b 664 919 664 919 664 919 b 651 919 658 919 657 919 b 640 919 646 919 644 919 b 639 921 639 919 639 919 b 640 922 639 922 639 922 b 647 931 646 924 647 925 l 647 957 b 640 965 647 963 646 965 b 639 967 639 965 639 965 b 640 968 639 968 639 968 b 651 968 644 968 646 968 b 664 968 657 968 658 968 b 664 967 664 968 664 968 b 664 965 664 965 664 965 b 657 957 657 965 657 963 l 657 946 l 681 946 l 681 957 b 674 965 681 963 681 965 b 674 967 674 965 674 965 b 674 968 674 968 674 968 b 686 968 678 968 679 968 b 699 968 690 968 693 968 b 699 967 699 968 699 968 b 699 965 699 965 699 965 b 690 957 690 965 690 963 l 690 931 b 699 922 690 925 690 924 b 699 921 699 922 699 922 b 699 919 699 919 699 919 z m 1146 525 l 1096 525 l 1096 564 l 1081 564 l 1081 474 l 1100 474 l 1100 428 l 988 428 l 988 474 l 1007 474 l 1007 564 l 992 564 l 992 525 l 942 525 l 942 611 l 1146 611 z m 815 744 b 782 719 815 731 803 719 b 760 738 769 719 760 728 b 772 751 760 744 765 751 b 782 744 778 751 782 749 b 776 738 782 740 779 738 b 769 740 772 738 771 740 b 765 736 767 740 765 739 b 782 724 765 728 772 724 b 799 743 792 724 799 728 b 790 764 799 753 796 760 b 775 757 786 760 782 757 b 764 765 769 757 764 761 b 775 774 764 771 769 774 b 786 774 778 774 783 774 b 789 782 788 775 789 776 b 775 799 789 792 785 799 b 765 790 769 799 765 794 b 769 782 765 786 769 788 b 764 778 769 781 768 778 b 757 786 760 778 757 782 b 775 803 757 794 764 803 b 803 782 792 803 803 790 b 797 769 803 776 800 772 b 815 744 807 764 815 754 z m 1147 860 l 196 860 l 196 865 l 1147 865 z m 610 921 b 608 919 610 919 608 919 b 586 919 604 919 592 919 b 569 919 581 919 575 919 b 564 935 568 925 565 929 b 565 936 564 935 564 936 l 565 936 b 582 924 569 928 575 924 l 586 924 b 592 928 589 924 592 924 l 592 944 l 586 944 b 578 936 582 944 578 943 b 576 935 578 936 578 935 b 575 936 575 935 575 936 b 575 944 575 940 575 940 b 575 953 575 949 575 950 b 576 954 575 954 575 954 b 578 953 578 954 578 954 b 586 946 578 947 582 946 l 592 946 l 592 960 b 586 965 592 964 589 965 l 582 965 b 569 954 578 965 572 963 l 569 953 b 567 954 568 953 567 954 b 569 968 569 960 569 964 b 586 968 575 968 581 968 b 608 968 593 968 604 968 b 610 967 608 968 610 968 b 608 965 610 965 608 965 b 601 957 601 965 601 963 l 601 931 b 608 922 601 925 601 924 b 610 921 608 922 610 922 z m 690 722 b 690 721 690 721 690 721 b 671 722 682 721 679 722 b 651 721 664 722 658 721 b 649 724 650 721 649 724 b 650 725 649 725 650 725 b 661 732 658 726 661 728 b 660 738 661 735 661 736 l 656 760 l 649 760 b 638 744 640 760 636 757 b 636 744 638 744 638 744 b 633 744 635 744 633 744 b 631 761 632 751 632 756 b 626 776 629 768 628 769 b 628 778 626 778 628 778 b 631 776 629 778 631 778 b 647 764 635 765 639 764 l 653 764 l 649 786 b 640 794 647 793 644 794 l 635 794 b 615 776 622 794 617 790 b 614 775 615 775 615 775 b 611 776 613 775 611 775 b 613 790 611 782 613 786 b 611 800 613 794 613 797 b 639 799 619 800 631 799 b 674 800 647 799 668 800 b 675 797 674 800 675 799 b 674 796 675 796 675 796 b 664 789 665 794 664 792 b 665 783 664 786 664 785 l 675 738 b 689 725 678 731 678 728 b 690 722 690 725 690 724 z m 1143 240 b 1142 238 1143 239 1142 238 b 1124 239 1135 238 1132 239 b 1103 238 1115 239 1111 238 b 1101 240 1101 238 1101 240 b 1101 243 1101 242 1101 243 b 1113 250 1111 244 1113 246 b 1111 256 1113 251 1111 253 l 1107 276 l 1100 276 b 1089 261 1092 276 1088 274 b 1088 261 1089 261 1089 261 b 1086 261 1086 261 1086 261 b 1082 278 1083 268 1083 274 b 1078 294 1081 285 1079 286 b 1081 294 1078 294 1078 294 b 1082 294 1082 294 1082 294 b 1099 282 1086 282 1090 282 l 1106 282 l 1100 303 b 1092 311 1099 310 1096 311 l 1086 311 b 1067 293 1074 311 1069 307 b 1065 292 1067 293 1067 292 b 1064 293 1064 292 1063 293 b 1064 308 1064 299 1064 303 b 1064 317 1064 311 1064 315 b 1090 317 1071 317 1082 317 b 1125 317 1099 317 1119 317 b 1128 314 1126 317 1128 315 l 1126 313 b 1115 306 1118 311 1115 310 b 1115 300 1115 304 1115 303 l 1128 256 b 1140 243 1129 247 1129 244 b 1143 240 1142 243 1143 240 z m 1147 661 l 196 661 l 196 667 l 1147 667 z m 894 564 l 875 564 l 824 501 l 824 474 l 844 474 l 844 428 l 732 428 l 732 474 l 751 474 l 751 500 l 700 564 l 683 564 l 683 611 l 769 611 l 769 564 l 756 564 l 776 532 l 797 564 l 782 564 l 782 611 l 894 611 z m 554 724 b 549 719 554 721 551 719 b 532 729 542 719 536 724 b 494 713 517 729 519 713 b 476 728 485 713 476 719 b 483 736 476 732 478 736 b 490 731 486 736 490 733 b 488 724 490 728 488 728 b 494 718 488 721 490 718 b 524 736 507 718 504 736 b 497 799 504 758 515 799 b 490 790 492 799 490 794 b 485 782 490 785 490 782 b 478 789 481 782 478 785 b 496 803 478 794 486 803 b 536 736 532 803 524 753 b 554 724 549 735 554 728 z m 1007 267 b 976 236 1007 244 989 236 b 928 289 953 236 928 261 b 957 319 928 311 944 319 b 1007 267 982 319 1007 294 z m 406 744 b 374 719 406 731 394 719 b 350 738 360 719 350 728 b 363 751 350 744 356 751 b 374 744 369 751 374 749 b 367 738 374 740 371 738 b 360 740 363 738 361 740 b 357 736 357 740 357 739 b 374 724 357 728 363 724 b 390 743 382 724 390 728 b 382 764 390 753 386 760 b 365 757 378 760 372 757 b 356 765 361 757 356 761 b 365 774 356 771 361 774 b 378 774 369 774 374 774 b 379 782 378 775 379 776 b 365 799 379 792 375 799 b 357 790 360 799 357 794 b 361 782 357 786 361 788 b 354 778 361 781 358 778 b 347 786 350 778 347 782 b 365 803 347 794 356 803 b 393 782 382 803 393 790 b 388 769 393 776 390 772 b 406 744 399 764 406 754 z m 861 313 b 849 306 851 311 849 310 b 850 300 849 304 850 303 l 857 269 b 860 258 858 265 860 263 b 831 236 860 249 853 236 b 794 272 806 236 799 257 l 788 300 b 772 313 786 308 785 311 b 771 315 771 313 771 315 b 771 317 771 317 771 317 b 786 317 778 317 778 317 b 803 317 793 317 797 317 l 803 315 b 803 313 803 314 803 313 b 792 306 794 311 792 310 b 793 300 792 304 793 303 l 799 274 b 826 243 803 257 811 243 b 844 257 839 243 844 249 b 842 271 844 261 843 265 l 835 300 b 821 313 833 308 833 311 b 819 315 819 313 819 315 b 819 317 819 317 819 317 b 839 317 828 317 832 317 b 860 317 847 317 851 317 b 861 314 861 317 861 315 z m 632 428 l 519 428 l 519 474 l 540 474 l 540 500 l 499 500 b 433 556 458 500 433 524 b 499 611 433 586 458 611 l 632 611 l 632 564 l 613 564 l 613 474 l 632 474 z m 1147 378 l 196 378 l 196 383 l 1147 383 z m 964 65 b 953 65 960 65 957 65 b 944 65 950 65 947 65 b 943 67 943 65 943 65 b 944 68 943 67 943 68 b 951 75 951 68 951 71 l 950 101 l 915 64 l 914 64 b 911 64 913 64 911 64 l 911 103 b 903 110 911 107 911 110 b 903 113 903 110 903 111 l 903 114 b 913 113 907 114 910 113 b 924 114 917 113 919 114 l 924 113 b 924 110 924 111 924 110 b 915 103 915 110 915 107 l 915 79 l 949 114 b 956 113 951 114 953 113 b 963 114 958 113 960 114 l 963 113 b 963 110 963 111 963 110 b 954 103 956 110 954 107 l 956 75 b 964 68 956 71 957 68 b 964 67 964 68 964 68 b 964 65 964 65 964 65 z m 282 722 b 281 721 282 721 282 721 b 263 722 274 721 269 722 b 242 721 254 722 249 721 b 240 724 240 721 240 724 b 240 725 240 725 240 725 b 251 732 249 726 251 728 b 251 738 251 735 251 736 l 246 757 b 239 753 243 757 240 757 l 222 721 b 197 719 211 721 203 719 b 194 721 196 719 194 719 b 196 724 194 722 194 724 b 215 736 204 725 210 728 l 226 758 b 200 782 214 761 200 771 b 228 800 200 796 211 800 b 247 799 236 800 240 799 b 265 800 254 799 257 800 b 265 797 265 800 265 799 b 265 796 265 796 265 796 b 254 789 257 794 254 792 b 256 783 254 786 254 785 l 265 738 b 281 725 268 731 268 728 b 282 722 281 725 282 724 z m 725 240 b 724 238 725 239 725 238 b 711 239 719 238 717 239 b 694 238 704 239 699 238 l 693 240 b 694 243 693 242 693 243 b 703 256 703 244 704 249 l 696 297 l 653 236 b 650 236 653 236 651 236 b 649 238 649 236 649 236 l 638 300 b 624 313 636 307 633 311 l 624 315 b 624 317 624 317 624 317 b 638 315 629 317 632 315 b 653 317 644 315 649 317 b 656 314 654 317 656 315 b 654 313 656 314 656 313 b 644 300 644 311 643 307 l 650 261 l 692 317 b 704 317 696 317 699 317 b 711 317 707 317 708 317 b 714 314 713 317 714 315 b 713 313 714 314 714 313 b 700 304 703 311 700 310 b 701 300 700 303 700 301 l 711 256 b 724 243 711 249 715 244 z m 878 64 b 854 65 872 65 861 65 b 838 64 849 65 843 65 b 832 79 836 71 835 75 b 833 81 832 81 832 81 l 835 81 b 851 68 838 72 844 68 l 854 68 b 860 74 857 68 860 69 l 860 89 l 854 89 b 846 81 850 89 847 89 b 844 81 846 81 846 81 l 844 81 b 844 89 844 85 844 86 b 844 99 844 93 844 96 l 844 100 b 846 99 846 100 846 99 b 854 92 847 92 850 92 l 860 92 l 860 104 b 854 110 860 110 857 110 l 851 110 b 838 100 846 110 840 108 b 836 99 838 99 838 99 b 836 100 836 99 836 99 b 839 114 836 106 838 108 b 856 113 844 114 849 113 b 878 114 861 113 872 114 l 878 113 b 878 110 878 111 878 110 b 869 103 869 110 869 107 l 869 75 b 878 68 869 71 869 68 l 878 67 b 878 64 878 65 878 64 z m 808 113 b 807 110 808 111 808 110 b 799 101 803 110 803 108 l 782 64 l 782 64 b 781 64 781 64 781 64 l 768 85 l 758 64 b 757 64 757 64 757 64 l 756 64 l 739 101 b 731 110 736 107 736 110 b 731 113 731 110 731 111 l 731 114 b 738 113 733 114 735 113 b 746 114 742 113 743 114 b 747 113 747 114 747 113 b 746 110 747 111 747 110 b 743 106 743 110 743 110 b 743 101 743 106 743 103 l 754 76 l 764 94 l 760 101 b 750 110 757 107 754 110 b 749 113 749 110 749 111 l 749 114 b 758 113 753 114 756 113 b 765 114 761 113 763 114 b 775 113 771 114 771 113 b 785 114 781 113 779 114 l 786 113 b 785 110 786 111 785 110 b 776 101 779 110 778 107 l 769 89 l 778 76 l 790 103 b 790 106 790 104 790 106 b 788 110 790 110 790 110 b 788 113 788 110 788 111 l 788 114 b 799 113 793 114 794 113 b 808 114 803 113 803 114 z m 1147 178 l 196 178 l 196 183 l 1147 183 z m 385 428 l 189 428 l 189 513 l 246 513 l 246 474 l 292 474 l 292 503 l 258 503 l 258 536 l 292 536 l 292 564 l 246 564 l 246 525 l 189 525 l 189 611 l 385 611 l 385 564 l 365 564 l 365 474 l 385 474 z m 574 238 b 550 239 568 239 557 239 b 529 239 544 239 536 239 b 481 286 506 239 481 257 b 515 318 481 307 499 318 b 536 317 521 318 528 317 b 557 317 543 317 551 317 b 557 314 557 317 557 317 l 557 313 b 547 306 549 311 547 310 b 547 300 547 304 547 303 l 558 256 b 572 243 560 247 560 244 b 574 240 574 243 574 240 b 574 238 574 239 574 238 z m 665 113 b 665 110 665 111 665 110 b 656 103 660 110 658 108 l 644 86 l 644 75 b 651 68 644 71 644 68 b 653 67 653 68 653 67 b 651 64 653 65 653 64 b 640 65 647 64 644 65 b 628 64 633 65 632 64 b 628 67 628 64 628 65 l 628 68 b 635 75 635 68 635 71 l 635 86 l 624 103 b 613 110 619 108 618 110 b 613 113 613 110 613 111 l 613 114 b 621 113 615 114 618 113 b 632 114 625 113 628 114 l 632 113 b 632 110 632 111 632 110 b 626 106 628 110 626 110 b 628 103 626 106 626 104 l 636 90 l 644 103 b 646 107 646 104 646 106 b 643 110 646 110 644 110 b 642 113 642 110 642 111 b 643 114 642 113 642 114 b 654 113 647 114 649 113 b 665 114 660 113 661 114 z m 425 240 b 424 238 425 239 424 238 b 406 239 417 238 414 239 b 385 238 397 239 393 238 l 383 240 b 385 243 383 242 383 243 b 394 250 393 244 394 246 b 394 256 394 251 394 253 l 390 274 b 382 269 386 274 385 274 l 365 239 b 340 236 354 239 347 238 b 339 239 340 236 339 236 b 340 240 339 240 339 240 b 357 254 347 243 353 246 l 369 276 b 344 300 357 278 344 289 b 371 317 344 313 354 317 b 390 317 379 317 383 317 b 407 317 399 317 400 317 b 410 314 408 317 410 315 b 408 313 410 314 410 313 b 399 306 400 311 399 310 b 399 300 399 304 399 303 l 410 256 b 424 243 411 247 411 244 z m 589 89 b 561 64 589 75 578 64 b 535 89 544 64 535 75 b 561 114 535 103 544 114 b 589 89 578 114 589 103 z m 506 67 b 504 64 506 65 506 64 b 492 65 500 64 499 65 b 481 64 486 65 485 64 b 479 67 479 64 479 65 b 481 68 479 67 479 68 b 488 75 486 68 488 71 l 488 88 b 478 81 482 88 482 86 l 469 65 b 461 65 465 65 464 65 b 453 65 460 65 457 65 b 453 67 453 65 453 65 b 453 68 453 68 453 68 b 463 74 460 68 461 71 l 474 89 b 463 101 467 92 463 96 b 479 114 463 108 469 114 b 492 113 485 114 486 113 b 504 114 497 113 500 114 b 506 113 506 114 506 113 b 504 110 506 111 506 110 b 497 103 497 110 497 107 l 497 75 b 504 68 497 71 497 68 b 506 67 506 68 506 67 z m 281 299 b 278 299 279 299 278 299 b 261 308 274 303 269 308 b 249 290 253 308 249 301 b 253 267 249 283 250 275 l 256 256 b 269 243 257 247 257 244 l 271 240 b 269 238 271 239 269 238 b 253 239 263 238 260 239 b 232 238 244 239 240 238 b 231 240 231 238 231 240 b 231 243 231 242 231 243 b 240 250 239 244 240 246 b 240 256 240 251 240 253 l 239 264 b 206 310 232 290 224 310 b 194 301 199 310 194 307 b 190 301 193 301 192 301 b 190 303 190 303 190 303 b 203 319 190 311 194 319 b 236 288 218 319 231 306 b 236 294 236 290 236 293 b 256 319 236 310 242 319 b 281 301 269 319 275 311 b 281 299 282 301 282 300 z m 428 64 b 415 65 424 64 421 65 b 403 64 410 65 408 64 b 403 67 403 64 403 65 l 403 68 b 411 75 411 68 411 71 l 411 88 b 406 85 408 88 407 86 l 396 74 b 394 71 394 72 394 72 b 399 68 394 68 394 68 l 399 67 b 399 64 399 65 399 64 b 385 65 393 64 389 65 b 374 64 379 65 378 64 b 372 67 372 64 372 65 l 374 68 b 383 74 378 68 381 71 l 401 92 l 389 104 b 378 110 386 107 385 110 b 378 113 378 110 378 111 l 378 114 b 386 113 381 114 382 113 b 396 114 390 113 392 114 l 396 113 b 396 110 396 111 396 110 b 392 108 393 110 392 110 b 394 104 392 107 393 106 l 406 93 b 411 89 407 90 408 89 l 411 103 b 403 110 411 107 411 110 b 403 113 403 110 403 111 l 403 114 b 415 113 408 114 410 113 b 428 114 421 113 424 114 l 428 113 b 428 110 428 111 428 110 b 419 103 421 110 419 107 l 419 75 b 428 68 419 71 421 68 l 428 67 b 428 64 428 65 428 64 z m 949 743 b 915 799 949 772 932 799 b 899 778 903 799 899 792 b 932 724 899 750 915 724 b 949 743 944 724 949 729 z m 785 768 b 775 769 782 769 778 769 b 769 765 771 769 769 768 b 775 763 769 764 771 763 b 785 768 778 763 782 764 z m 990 261 b 957 315 990 289 976 315 b 943 296 947 315 943 310 b 976 240 943 267 957 240 b 990 261 986 240 990 247 z m 375 768 b 365 769 372 769 369 769 b 361 765 361 769 361 768 b 365 763 361 764 363 763 b 375 768 369 763 372 764 z m 540 533 l 540 564 l 525 564 b 507 549 513 564 507 557 b 525 533 507 540 513 533 z m 244 761 l 240 786 b 228 794 238 793 236 794 b 217 782 219 794 217 792 b 238 761 217 774 221 761 z m 769 107 b 765 110 769 110 768 110 b 763 106 764 110 763 110 b 765 99 763 106 764 101 b 769 107 768 103 769 106 z m 544 253 l 532 303 b 524 311 529 311 528 311 l 515 313 b 496 288 503 313 496 303 b 532 244 496 265 511 244 l 539 244 b 544 253 543 244 544 244 z m 389 279 l 382 303 b 372 313 382 311 379 313 b 361 299 364 313 361 308 b 382 279 361 290 365 279 z m 578 89 b 561 113 578 101 574 113 b 544 89 550 113 544 101 b 561 67 544 76 550 67 b 578 89 574 67 578 76 z m 488 90 l 488 104 b 482 110 488 110 486 110 b 472 101 475 110 472 106 b 483 90 472 93 475 90 b 488 90 486 90 486 90 z "},"Ò":{"ha":997,"x_min":0,"x_max":0,"o":"m 971 638 b 640 1008 971 868 839 1008 b 68 346 343 1008 68 679 b 399 -24 68 115 199 -24 b 971 638 694 -24 971 304 z m 858 782 b 653 139 858 617 714 236 b 399 -1 586 32 500 -1 b 181 203 258 -1 181 65 b 385 846 181 368 325 749 b 640 985 453 953 538 985 b 858 782 779 985 858 919 z m 761 1071 b 538 1319 563 1121 604 1319 b 486 1265 508 1319 486 1296 b 754 1049 486 1193 551 1097 b 761 1071 757 1047 764 1069 z "},"Ú":{"ha":1032,"x_min":0,"x_max":0,"o":"m 1158 985 l 885 985 b 878 963 882 985 875 963 l 993 963 b 1001 957 1000 963 1001 960 l 792 297 b 460 15 733 111 635 15 b 271 163 343 15 271 72 b 308 356 271 215 286 283 l 496 957 b 507 963 497 960 501 963 l 632 963 b 639 985 635 963 642 985 l 219 985 b 213 963 217 985 210 963 l 338 963 b 344 957 343 963 346 960 l 158 365 b 135 225 143 317 135 269 b 413 -24 135 83 217 -24 b 811 281 625 -24 751 90 l 1025 957 b 1036 963 1026 960 1029 963 l 1151 963 b 1158 985 1154 963 1161 985 z m 1017 1265 b 972 1310 1017 1290 1000 1310 b 653 1078 903 1310 888 1122 b 649 1056 650 1078 646 1056 b 1017 1265 924 1106 1017 1208 z "},"Û":{"ha":1032,"x_min":0,"x_max":0,"o":"m 1158 985 l 885 985 b 878 963 882 985 875 963 l 993 963 b 1001 957 1000 963 1001 960 l 792 297 b 460 15 733 111 635 15 b 271 163 343 15 271 72 b 308 356 271 215 286 283 l 496 957 b 507 963 497 960 501 963 l 632 963 b 639 985 635 963 642 985 l 219 985 b 213 963 217 985 210 963 l 338 963 b 344 957 343 963 346 960 l 158 365 b 135 225 143 317 135 269 b 413 -24 135 83 217 -24 b 811 281 625 -24 751 90 l 1025 957 b 1036 963 1026 960 1029 963 l 1151 963 b 1158 985 1154 963 1161 985 z m 951 1081 b 881 1346 922 1153 890 1265 b 858 1351 881 1349 861 1353 b 601 1082 794 1285 708 1172 b 621 1074 599 1079 618 1071 b 815 1251 689 1131 767 1201 b 881 1069 832 1181 858 1110 z "},"Ù":{"ha":1032,"x_min":0,"x_max":0,"o":"m 1158 985 l 885 985 b 878 963 882 985 875 963 l 993 963 b 1001 957 1000 963 1001 960 l 792 297 b 460 15 733 111 635 15 b 271 163 343 15 271 72 b 308 356 271 215 286 283 l 496 957 b 507 963 497 960 501 963 l 632 963 b 639 985 635 963 642 985 l 219 985 b 213 963 217 985 210 963 l 338 963 b 344 957 343 963 346 960 l 158 365 b 135 225 143 317 135 269 b 413 -24 135 83 217 -24 b 811 281 625 -24 751 90 l 1025 957 b 1036 963 1026 960 1029 963 l 1151 963 b 1158 985 1154 963 1161 985 z m 861 1071 b 638 1319 663 1121 704 1319 b 586 1265 608 1319 586 1296 b 854 1049 586 1193 651 1097 b 861 1071 857 1047 864 1069 z "}}}
